<?xml version="1.0" standalone="no"?>
<!DOCTYPE svg PUBLIC "-//W3C//DTD SVG 1.1//EN" "http://www.w3.org/Graphics/SVG/1.1/DTD/svg11.dtd" >
<svg>
<metadata>
Created by FontForge 20110222 at Tue Jul 23 21:18:04 2013
 By Orthosie Webhosting
Copyright (c) 2013 by wojoscripts. All rights reserved.
</metadata>
<defs>
<font id="FMBoldRegular" horiz-adv-x="1318" >
  <font-face 
    font-family="FMBoldRegular"
    font-weight="400"
    font-stretch="normal"
    units-per-em="2048"
    panose-1="2 0 8 3 0 0 0 2 0 3"
    ascent="1554"
    descent="-494"
    x-height="1059"
    cap-height="1556"
    bbox="-123 -563 2204 2109"
    underline-thickness="102"
    underline-position="-102"
    unicode-range="U+0020-FB04"
  />
<missing-glyph horiz-adv-x="858" 
d="M135 1622l230 322h129l229 -322h-80l-217 246l-213 -246h-78z" />
    <glyph glyph-name=".notdef" horiz-adv-x="858" 
d="M135 1622l230 322h129l229 -322h-80l-217 246l-213 -246h-78z" />
    <glyph glyph-name=".null" horiz-adv-x="0" 
 />
    <glyph glyph-name="nonmarkingreturn" horiz-adv-x="682" 
 />
    <glyph glyph-name="space" unicode=" " horiz-adv-x="577" 
 />
    <glyph glyph-name="exclam" unicode="!" horiz-adv-x="518" 
d="M162 86q0 47 27.5 72.5t74.5 25.5q45 0 69.5 -26.5t24.5 -71.5q0 -47 -23.5 -74.5t-70.5 -27.5q-102 0 -102 102zM195 391v1188h131v-1188h-131z" />
    <glyph glyph-name="quotedbl" unicode="&#x22;" horiz-adv-x="610" 
d="M131 1554h129l-8 -358h-113zM350 1554h129l-6 -358h-115z" />
    <glyph glyph-name="numbersign" unicode="#" horiz-adv-x="1515" 
d="M186 578l19 120h303l43 248h-303l20 125h303l54 322h120l-53 -322h244l53 322h121l-53 -322h301l-21 -125h-299l-41 -248h301l-20 -120h-301l-55 -345h-123l55 345h-242l-57 -345h-121l55 345h-303zM633 698h241l41 248h-243z" />
    <glyph glyph-name="dollar" unicode="$" horiz-adv-x="1277" 
d="M90 244l125 71q57 -98 139 -141t203 -53v637q-98 37 -173 75.5t-122 88t-70.5 113t-23.5 147.5q0 162 100.5 260t288.5 114v138h135v-138q53 -4 107.5 -17t108 -39.5t100.5 -70t86 -106.5l-115 -76q-61 100 -130 137t-157 46v-568q92 -31 172 -65.5t138.5 -87t92 -128
t33.5 -182.5q0 -76 -20.5 -146.5t-68.5 -124.5t-133 -91t-214 -45v-135h-135v133q-70 4 -138.5 19.5t-130 45t-111.5 75.5t-87 114zM307 1188q0 -47 8.5 -83t35 -70t74.5 -63.5t132 -60.5v519q-47 -4 -92 -19.5t-80 -43.5t-56.5 -72t-21.5 -107zM692 121q170 12 232.5 78.5
t62.5 181.5q0 80 -21.5 132t-59.5 89t-91 62.5t-123 48.5v-592z" />
    <glyph glyph-name="percent" unicode="%" horiz-adv-x="1669" 
d="M131 1247q0 76 27.5 139.5t75 108.5t111 70.5t134.5 25.5q74 0 137.5 -24.5t110.5 -70.5t73.5 -108.5t26.5 -140.5q0 -80 -26.5 -142.5t-72.5 -108.5t-110.5 -69.5t-138.5 -23.5q-72 0 -136 23.5t-110.5 69.5t-74 108.5t-27.5 142.5zM229 -23l1018 1582h146l-1006 -1582
h-158zM260 1247q0 -96 61.5 -161.5t157.5 -65.5q98 0 157.5 65.5t59.5 161.5q0 100 -58 160.5t-159 60.5q-98 0 -158.5 -60.5t-60.5 -160.5zM836 315q0 76 26.5 139.5t73.5 109.5t109.5 72t136.5 26q72 0 136 -27t110.5 -73t74 -109.5t27.5 -137.5t-27.5 -136t-75 -107
t-111 -71t-134.5 -26q-74 0 -136.5 26t-109.5 71t-73.5 107t-26.5 136zM963 315q0 -94 61 -157.5t158 -63.5q96 0 157.5 62.5t61.5 158.5q0 100 -60.5 165t-158.5 65q-100 0 -159.5 -64t-59.5 -166z" />
    <glyph glyph-name="ampersand" unicode="&#x26;" horiz-adv-x="1392" 
d="M92 395q0 78 23.5 148.5t63.5 134t92.5 120t109.5 103.5q-53 66 -84 139.5t-31 159.5q0 78 28 141.5t75 108.5t112.5 70.5t139.5 25.5q125 0 219 -67.5t123 -190.5l-127 -55q-23 88 -71 136t-144 48q-98 0 -154.5 -54t-56.5 -153q0 -84 30.5 -143t85.5 -119
q111 -125 223.5 -245.5t229.5 -239.5q29 53 53.5 105.5t48.5 117.5l131 -55q-31 -78 -62.5 -143.5t-68.5 -131.5l183 -182q90 -90 190 -174h-209q-123 113 -241 233q-86 -113 -200 -183t-267 -70q-199 0 -322 105t-123 310zM233 395q0 -139 89.5 -209.5t222.5 -70.5
q102 0 192 59t156 150l10 12q-104 109 -214.5 226.5t-215.5 234.5q-109 -84 -174.5 -185.5t-65.5 -216.5z" />
    <glyph glyph-name="quotesingle" unicode="'" horiz-adv-x="378" 
d="M123 1554h131l-6 -358h-115z" />
    <glyph glyph-name="parenleft" unicode="(" horiz-adv-x="595" 
d="M131 711q0 274 51 531t158 523h139q-113 -274 -164 -532t-51 -518q0 -283 50.5 -530.5t160.5 -489.5h-143q-100 238 -150.5 489t-50.5 527z" />
    <glyph glyph-name="parenright" unicode=")" horiz-adv-x="598" 
d="M117 1765h139q106 -266 159.5 -521t53.5 -529q0 -279 -52 -531t-153 -489h-145q111 242 162 489.5t51 530.5q0 260 -53 518t-162 532z" />
    <glyph glyph-name="asterisk" unicode="*" horiz-adv-x="1024" 
d="M115 1151v121l331 -27l-178 275l107 63l139 -295l143 293l105 -61l-182 -275l329 23v-123l-327 20l184 -268l-104 -63l-148 296l-154 -294l-104 61l188 268z" />
    <glyph glyph-name="plus" unicode="+" horiz-adv-x="1193" 
d="M121 702v132h409v417h132v-417h411v-132h-411v-421h-132v421h-409z" />
    <glyph glyph-name="comma" unicode="," horiz-adv-x="436" 
d="M117 76q0 53 28.5 77.5t69.5 24.5q51 0 77.5 -34.5t26.5 -86.5q0 -39 -13 -81t-34.5 -82.5t-47 -78.5t-50.5 -69l-47 14q31 68 51.5 116t24.5 106q-43 12 -64.5 37.5t-21.5 56.5z" />
    <glyph glyph-name="hyphen" unicode="-" horiz-adv-x="1052" 
d="M174 506v125h705v-125h-705z" />
    <glyph glyph-name="period" unicode="." horiz-adv-x="466" 
d="M141 80q0 92 97 92q92 0 92 -92q0 -98 -92 -98q-97 0 -97 98z" />
    <glyph glyph-name="slash" unicode="/" horiz-adv-x="933" 
d="M78 0l678 1593h141l-676 -1593h-143z" />
    <glyph glyph-name="zero" unicode="0" horiz-adv-x="1460" 
d="M164 780q0 139 20.5 281.5t83 256.5t174 185.5t295.5 71.5q182 0 293 -71.5t170.5 -187.5t77.5 -256t18 -280q0 -135 -21.5 -275t-80.5 -255t-169 -188.5t-288 -73.5q-182 0 -294.5 71.5t-175 185t-83 255t-20.5 280.5zM315 782q0 -119 13.5 -237.5t58.5 -212.5
t128 -154.5t222 -60.5q137 0 217 60.5t122 156.5t54.5 214t12.5 234q0 119 -12.5 237t-52.5 213t-120.5 154.5t-220.5 59.5q-141 0 -226 -58.5t-128 -152.5t-55.5 -213t-12.5 -240z" />
    <glyph glyph-name="one" unicode="1" horiz-adv-x="739" 
d="M121 1221v163q39 31 83 71t89 73q20 18 49 31.5t55 13.5q47 0 68.5 -35t21.5 -76v-1462h-143v1411z" />
    <glyph glyph-name="two" unicode="2" horiz-adv-x="1179" 
d="M156 0q0 88 1 164t14 145.5t45 135t93 139.5q84 100 189.5 172.5t212.5 148.5q39 29 69.5 57.5t53 62.5t34 75t11.5 96q0 68 -22.5 115t-58.5 76.5t-84 44t-100 14.5q-152 0 -226.5 -75t-84.5 -228h-143q4 203 123.5 318.5t330.5 115.5q78 0 152 -22.5t133 -68.5t94 -118
t35 -172q0 -61 -12 -115.5t-45 -110t-93.5 -111.5t-158.5 -120q-80 -53 -152.5 -109.5t-128 -118.5t-90.5 -132t-37 -150l-2 -94h725v-135h-878z" />
    <glyph glyph-name="three" unicode="3" horiz-adv-x="1273" 
d="M80 389l143 45q20 -92 53 -153.5t81.5 -98.5t106.5 -52t128 -15q76 0 140.5 24.5t111.5 70.5t73.5 112.5t26.5 148.5q0 78 -30.5 139.5t-85 104.5t-127 66.5t-154.5 23.5h-84v137h72q139 0 217.5 77t78.5 189q0 111 -67.5 170.5t-173.5 59.5q-115 0 -182.5 -54.5
t-106.5 -166.5l-133 55q53 158 160.5 228.5t263.5 70.5q80 0 149.5 -24.5t121.5 -70.5t83 -114t31 -154q0 -96 -43 -178t-133 -139q139 -49 217 -156.5t78 -265.5q0 -115 -41 -205t-111 -152.5t-162 -96t-192 -33.5q-96 0 -179 22.5t-149.5 69.5t-112.5 124.5t-69 190.5z
" />
    <glyph glyph-name="four" unicode="4" horiz-adv-x="1234" 
d="M43 463v125l608 872q37 53 82 85t103 32q59 0 101 -38t42 -130v-1409h-141v463h-795zM211 592h627v833q0 8 -5.5 15.5t-11.5 7.5q-16 0 -41 -33z" />
    <glyph glyph-name="five" unicode="5" horiz-adv-x="1280" 
d="M113 268l116 76q27 -45 61 -87t79 -74.5t102 -51t135 -18.5q86 0 157 28.5t120 81.5t75.5 126t26.5 159q0 176 -101.5 278.5t-283.5 102.5q-94 0 -190.5 -20.5t-180.5 -65.5v590q0 66 40 114.5t124 48.5h645v-126h-600q-39 0 -55 -10.5t-16 -55.5v-371q47 10 106 20.5
t131 10.5q121 0 218.5 -36t167 -101.5t107.5 -160.5t38 -216q0 -111 -38 -206t-106.5 -166.5t-166 -112.5t-218.5 -41q-186 0 -303.5 77.5t-189.5 206.5z" />
    <glyph glyph-name="six" unicode="6" horiz-adv-x="1370" 
d="M184 506q0 98 20.5 189t51.5 173t66.5 150.5t66.5 122.5q20 37 50 84t67 102t80 113.5t86 115.5h174q-133 -164 -236.5 -318.5t-167.5 -289.5q61 37 127 56.5t142 19.5q117 0 211 -38t160.5 -106.5t101.5 -163.5t35 -210q0 -113 -39 -210t-109 -168t-165 -112t-210 -41
q-111 0 -205 38t-162.5 106.5t-106.5 167t-38 219.5zM328 502q0 -90 27.5 -163t76.5 -125t117.5 -80t152.5 -28q82 0 151 30t119 82t77.5 125t27.5 159q0 88 -25.5 160.5t-73.5 124t-115.5 79t-151.5 27.5q-86 0 -158 -28.5t-121 -79t-76.5 -124t-27.5 -159.5z" />
    <glyph glyph-name="seven" unicode="7" horiz-adv-x="1064" 
d="M35 1427v127h794q80 0 114 -40.5t34 -96.5q0 -37 -10.5 -71.5t-26.5 -71.5q-33 -80 -74 -177.5t-85 -200.5t-90 -210.5t-87 -208.5q-100 -233 -205 -477h-147q162 379 289 680q51 127 103 250t93 219t66.5 156.5t25.5 64.5q6 20 3 38.5t-35 18.5h-762z" />
    <glyph glyph-name="eight" unicode="8" 
d="M139 467q0 145 75 253.5t198 172.5q-84 49 -129 126t-45 181q0 82 25.5 151.5t78.5 121t131 81t178 29.5q98 0 176 -27.5t131.5 -76.5t81 -118t27.5 -149q0 -106 -46 -183t-124 -126q131 -66 208 -175.5t77 -260.5q0 -111 -41 -203t-110.5 -155.5t-166 -99.5t-205.5 -36
q-113 0 -208 36t-164.5 99.5t-108.5 154.5t-39 204zM285 463q0 -80 26.5 -146.5t76.5 -112.5t118.5 -73t152.5 -27q82 0 151 27t118 74t77.5 113.5t28.5 144.5t-27.5 142.5t-76.5 111.5t-119 73.5t-152 26.5t-150.5 -26.5t-118.5 -73.5t-77.5 -111.5t-27.5 -142.5zM379 1210
q0 -121 72.5 -190.5t199.5 -69.5q125 0 198 70t73 190q0 119 -73 184.5t-198 65.5q-129 0 -200.5 -67.5t-71.5 -182.5z" />
    <glyph glyph-name="nine" unicode="9" horiz-adv-x="1337" 
d="M150 1069q0 111 39.5 204t109.5 160.5t163 106.5t202 39q106 0 199 -35t160 -102.5t106.5 -162.5t39.5 -216q0 -102 -19.5 -192.5t-51 -170t-72.5 -152.5t-86 -140q-20 -33 -52 -80t-71 -101.5t-82 -113t-84 -113.5h-176q137 166 255 330t192 307q-57 -31 -131 -49.5
t-140 -18.5q-117 0 -209 37t-156.5 103.5t-100 158.5t-35.5 201zM289 1075q0 -178 98 -279.5t264 -101.5q178 0 277.5 95.5t99.5 273.5q0 90 -25.5 161.5t-73.5 123t-116 79t-149 27.5q-86 0 -155 -29.5t-118 -81t-75.5 -120t-26.5 -148.5z" />
    <glyph glyph-name="colon" unicode=":" horiz-adv-x="425" 
d="M121 80q0 92 94 92q92 0 92 -92q0 -98 -92 -98q-94 0 -94 98zM121 756q0 94 94 94q92 0 92 -94q0 -96 -92 -97q-94 1 -94 97z" />
    <glyph glyph-name="semicolon" unicode=";" horiz-adv-x="436" 
d="M123 756q0 94 96 94q92 0 92 -94q0 -96 -92 -97q-96 1 -96 97zM127 76q0 53 28.5 77.5t65.5 24.5q53 0 79 -34.5t26 -86.5q0 -39 -13.5 -81t-35 -82.5t-47 -78.5t-48.5 -69l-49 14q33 68 52.5 116t27.5 106q-45 12 -65.5 37.5t-20.5 56.5z" />
    <glyph glyph-name="less" unicode="&#x3c;" horiz-adv-x="1038" 
d="M84 738.5q-6 54.5 61 92.5l822 484v-150l-721 -422l721 -421v-152l-820 481q-57 33 -63 87.5z" />
    <glyph glyph-name="equal" unicode="=" horiz-adv-x="1394" 
d="M150 518v121h1093v-121h-1093zM150 874v121h1093v-121h-1093z" />
    <glyph glyph-name="greater" unicode="&#x3e;" horiz-adv-x="1038" 
d="M74 172v150l721 421l-721 424v150l819 -483q37 -20 51 -45t13 -49.5t-18 -49t-46 -39.5z" />
    <glyph glyph-name="question" unicode="?" horiz-adv-x="1001" 
d="M88 1343q33 70 82 115t105.5 70.5t117 36t121.5 10.5q188 0 289.5 -90t101.5 -246q0 -66 -16.5 -116t-42.5 -95q-41 -66 -92.5 -119t-97.5 -109.5t-76.5 -124t-30.5 -157.5v-127h-139v123q0 86 19.5 151.5t54 123t79.5 108.5t94 109q43 51 75 106t32 129
q0 88 -59.5 145.5t-196.5 57.5q-100 0 -175 -34t-120 -122zM385 86q0 47 27.5 72.5t74.5 25.5q45 0 70 -26.5t25 -71.5q0 -47 -23.5 -74.5t-71.5 -27.5q-102 0 -102 102z" />
    <glyph glyph-name="at" unicode="@" horiz-adv-x="1830" 
d="M188 602q0 170 59.5 313.5t166 249t251 165t314.5 59.5q131 0 247.5 -39t203 -113t136.5 -182.5t50 -247.5q0 -98 -25.5 -191.5t-74 -166t-118 -117.5t-155.5 -45q-45 0 -87 17.5t-69 53.5q-57 -35 -125.5 -55t-132.5 -20q-78 0 -136 24.5t-98 68.5t-60.5 105.5
t-20.5 132.5q0 94 33 178.5t92 148t140 102t179 38.5q94 0 172 -32.5t144 -108.5l-80 -360q-6 -31 -13 -58.5t-7 -58.5q0 -74 71 -74q70 0 118 44t80 108.5t46 137.5t14 130q0 113 -39 202t-110.5 149.5t-165.5 91t-205 30.5q-150 0 -274.5 -51t-215 -142.5t-141.5 -216
t-51 -270.5q0 -133 44 -238.5t124 -177t188.5 -109.5t237.5 -38q186 0 348 51t301 180l70 -82q-156 -143 -337 -199.5t-386 -56.5q-152 0 -281 45.5t-222 131.5t-146.5 210.5t-53.5 282.5zM627 618q0 -104 54 -167.5t161 -63.5q51 0 108.5 18.5t100.5 53.5l100 446
q-78 78 -193 78q-72 0 -132 -31.5t-105 -82t-69.5 -116t-24.5 -135.5z" />
    <glyph glyph-name="A" unicode="A" horiz-adv-x="1415" 
d="M63 0l474 1413q20 57 59 100t113 43q76 0 111.5 -43t56.5 -100l473 -1413h-158l-205 631h-561l-205 -631h-158zM469 764h473l-201 606q-6 18 -11 34.5t-21 16.5q-18 0 -22.5 -15t-12.5 -36z" />
    <glyph glyph-name="B" unicode="B" horiz-adv-x="1355" 
d="M219 0v1249q0 127 71.5 208t184.5 97q18 4 49 5.5t58 1.5h84q25 0 54.5 -2.5t51.5 -4.5q145 -23 240.5 -122t95.5 -258q0 -96 -45 -187.5t-135 -148.5q125 -51 197.5 -151.5t72.5 -250.5q0 -88 -27.5 -160.5t-75.5 -127t-115 -89t-146 -49.5q-25 -4 -68 -7t-80 -3h-467z
M360 133h347q178 0 261 84t83 219q0 147 -99.5 231.5t-283.5 84.5h-308v-619zM360 885h265q70 0 102 6q102 18 169 93t67 185q0 111 -58.5 175.5t-165.5 76.5q-18 6 -46.5 7.5t-49.5 1.5h-88q-84 0 -139.5 -42t-55.5 -143v-360z" />
    <glyph glyph-name="C" unicode="C" horiz-adv-x="1497" 
d="M141 776q0 170 51.5 315.5t145.5 251t228 166t302 60.5q154 0 292 -53.5t253 -186.5l-96 -106q-104 111 -214 161t-237 50q-131 0 -238.5 -50.5t-182 -138.5t-113.5 -207.5t-39 -259.5q0 -139 41 -260t115.5 -208t183 -138t244.5 -51q123 0 239.5 40t222.5 152l82 -110
q-121 -119 -262 -169t-285 -50q-172 0 -306 59t-229 164.5t-146.5 251t-51.5 317.5z" />
    <glyph glyph-name="D" unicode="D" horiz-adv-x="1544" 
d="M219 0v1247q0 82 30 140.5t80 97.5t113.5 57.5t135.5 18.5h94q184 0 321 -64.5t229.5 -173.5t138.5 -252t46 -299q0 -158 -44 -298t-132 -245.5t-219 -167t-303 -61.5h-490zM365 133h319h61q31 0 50 4q109 12 194.5 62.5t145 132.5t92.5 193.5t33 246.5q0 123 -35 242
t-106.5 211t-182.5 147t-262 55h-99q-86 0 -148 -39.5t-62 -146.5v-1108z" />
    <glyph glyph-name="E" unicode="E" horiz-adv-x="1204" 
d="M219 0v1214q0 25 1 46.5t5 37.5q20 102 92 172t183 80q10 2 35.5 4t56.5 2h475v-131h-496q-100 0 -154.5 -46t-54.5 -156v-346h627v-136h-627v-610h744v-131h-887z" />
    <glyph glyph-name="F" unicode="F" horiz-adv-x="1140" 
d="M178 1214q0 25 3 46.5t5 37.5q18 102 91 172t184 80q10 2 36.5 4t49.5 2h481v-129h-500q-98 0 -150 -46t-52 -156v-342h612v-131h-612v-752h-144z" />
    <glyph glyph-name="G" unicode="G" horiz-adv-x="1617" 
d="M133 764q0 172 53.5 318.5t149.5 255t233.5 171t302.5 62.5q160 0 297.5 -48t260.5 -165l-95 -113q-205 190 -463 191q-137 0 -246.5 -51.5t-186.5 -140.5t-117.5 -211t-40.5 -265t38.5 -264t114.5 -208t190.5 -136t262.5 -49q98 0 182 15t154 48q37 18 53 41t16 74v344
h-358v137h508v-494q0 -84 -47 -141t-158 -102q-74 -29 -170 -42.5t-180 -13.5q-186 0 -326.5 60.5t-236 165t-143.5 249t-48 312.5z" />
    <glyph glyph-name="H" unicode="H" horiz-adv-x="1558" 
d="M221 0v1556h148v-669h821v669h147v-1556h-147v748h-821v-748h-148z" />
    <glyph glyph-name="I" unicode="I" horiz-adv-x="591" 
d="M221 0v1556h150v-1556h-150z" />
    <glyph glyph-name="J" unicode="J" horiz-adv-x="1087" 
d="M154 53v150q88 -47 156.5 -65.5t138.5 -18.5q127 0 192.5 65.5t75.5 175.5q2 10 3 35t1 58v1103h147v-1110q0 -37 -1 -62.5t-3 -41.5q-18 -164 -128.5 -262t-291.5 -98q-70 0 -146 17t-144 54z" />
    <glyph glyph-name="K" unicode="K" horiz-adv-x="1361" 
d="M219 2v1554h146v-677h131q68 0 127 9t105 34.5t84 70.5t67 111l192 452h154l-219 -509q-31 -70 -78 -129.5t-121 -104.5l514 -811h-172l-404 641q-25 39 -44 59.5t-43.5 30.5t-60.5 12.5t-89 2.5h-143v-746h-146z" />
    <glyph glyph-name="L" unicode="L" horiz-adv-x="1191" 
d="M219 203v1353h148v-1355q0 -51 55 -64h674v-137h-670q-86 0 -146.5 55.5t-60.5 147.5z" />
    <glyph glyph-name="M" unicode="M" horiz-adv-x="1857" 
d="M219 0v1409q0 72 43 117t113 45q66 0 107.5 -38t68.5 -101l379 -877l377 877q25 51 66.5 95t115.5 44q76 0 112.5 -48t36.5 -118v-1405h-143v1407q0 29 -12 29q-10 0 -18.5 -8.5t-20.5 -38.5l-449 -1029h-133l-448 1029q-6 16 -15.5 31.5t-19.5 15.5q-16 0 -17 -27v-1409
h-143z" />
    <glyph glyph-name="N" unicode="N" horiz-adv-x="1593" 
d="M219 0v1409q0 72 39 117t111 45t115.5 -41t74.5 -109l621 -1257q6 -14 17 -27.5t20 -13.5q10 0 14 8t4 35v1390h141v-1406q0 -74 -40 -120t-111 -46q-117 0 -168 104q-160 324 -314.5 644.5t-316.5 643.5q-16 33 -25.5 45.5t-21.5 12.5q-18 0 -19 -33v-1401h-141z" />
    <glyph glyph-name="O" unicode="O" horiz-adv-x="1689" 
d="M141 776q0 162 42 307.5t129 255t220.5 174t315.5 64.5q174 0 304 -64.5t219 -174t133 -255t44 -307.5q0 -156 -44 -300t-133 -255.5t-219 -179.5t-302 -68q-180 0 -313.5 64.5t-221.5 175.5t-131 255t-43 308zM289 778q0 -137 33.5 -258t101.5 -212t173 -144t253 -53
q143 0 246.5 54t170 146t97.5 213t31 254q0 137 -33 258t-101.5 211t-171 142.5t-241.5 52.5q-147 0 -251.5 -53.5t-172.5 -142.5t-101.5 -211t-33.5 -257z" />
    <glyph glyph-name="P" unicode="P" horiz-adv-x="1259" 
d="M219 0v1249q0 125 66.5 202t179.5 101q20 4 52 5.5t58 1.5h91q25 0 57.5 -1.5t54.5 -5.5q86 -12 157 -51t122 -97t79.5 -137t28.5 -171q0 -100 -28.5 -181t-79.5 -141.5t-121 -100.5t-152 -61q-37 -8 -88 -12t-88 -4h-243v-596h-146zM365 731h260q31 0 65.5 3t57.5 7
q127 25 200.5 114t73.5 239q0 121 -68.5 213t-183.5 114q-18 6 -46 7.5t-50 1.5h-101q-31 0 -55 -2.5t-41 -8.5q-113 -33 -112 -164v-524z" />
    <glyph glyph-name="Q" unicode="Q" horiz-adv-x="1687" 
d="M139 772q0 170 44 317.5t133.5 254t220.5 169t305 62.5t304 -63.5t219 -173t134 -255t45 -311.5q0 -121 -25.5 -235.5t-77.5 -212t-128 -173t-176 -122.5q37 -25 74.5 -52.5t76.5 -52t80 -41t88 -16.5h139v-141h-133q-106 0 -178 37.5t-135.5 82.5t-130 83t-160.5 38h-12
q-174 0 -306 61.5t-221.5 171t-134.5 256t-45 316.5zM287 774q0 -141 34.5 -264t104.5 -212t173 -141.5t247 -52.5q139 0 241.5 52.5t170 143.5t100.5 213t33 261t-34 260t-101.5 210t-170 141.5t-239.5 52.5q-143 0 -246.5 -51.5t-173.5 -139.5t-104.5 -210t-34.5 -263z
" />
    <glyph glyph-name="R" unicode="R" 
d="M219 0v1239q0 113 54.5 196t170.5 113q27 6 62 9.5t67 3.5h91q33 0 70.5 -3.5t64.5 -7.5q76 -12 142.5 -46t115.5 -87t77.5 -124.5t28.5 -164.5q0 -168 -88 -274t-227 -152l428 -702h-172l-338 559q-41 70 -80 97.5t-100 27.5h-221v-684h-146zM365 817h305q74 0 136 18.5
t109.5 57.5t74 96.5t26.5 136.5q0 113 -62.5 188t-156.5 99q-25 6 -54.5 10t-60.5 4h-127q-190 0 -190 -184v-426z" />
    <glyph glyph-name="S" unicode="S" horiz-adv-x="1304" 
d="M123 242l127 84q63 -113 160.5 -154t244.5 -41q100 0 170 20.5t115 57.5t64.5 86t19.5 111q0 82 -36 134t-94 91t-132 65.5t-150.5 54t-150.5 62.5t-132.5 85t-94 125t-35.5 181q0 76 27.5 142.5t85 114.5t146.5 74t208 26q57 0 121.5 -6.5t127 -30t122 -69.5t104.5 -124
l-123 -78q-33 53 -74 88t-88 53.5t-96 25.5t-103 7q-168 0 -238.5 -60t-70.5 -159q0 -51 11.5 -94t50.5 -83t108.5 -78t183.5 -72q98 -31 183.5 -69t150 -91t101.5 -127t37 -178q0 -84 -29 -161t-91.5 -135.5t-165 -93t-247.5 -34.5q-80 0 -155.5 12t-143.5 42t-124 77
t-95 119z" />
    <glyph glyph-name="T" unicode="T" horiz-adv-x="1153" 
d="M47 1427v129h1063v-129h-457v-1427h-151v1427h-455z" />
    <glyph glyph-name="U" unicode="U" horiz-adv-x="1523" 
d="M217 516v1040h150v-1032q0 -84 12 -133q10 -59 40 -109.5t80 -87t123.5 -58t174.5 -21.5q39 0 87 4t95 13t91 20.5t75 21.5v1382h151v-1484q-113 -39 -240.5 -69t-264.5 -30q-225 0 -361.5 87t-185.5 243q-27 82 -27 213z" />
    <glyph glyph-name="V" unicode="V" horiz-adv-x="1411" 
d="M55 1556h164l465 -1382q10 -33 18.5 -39t16.5 -6t16 5t19 40q14 37 65 195q20 68 53 169t79 245.5t108.5 335t140.5 437.5h156l-463 -1415q-20 -68 -63.5 -110.5t-112.5 -42.5q-72 0 -113 40t-63 113z" />
    <glyph glyph-name="W" unicode="W" horiz-adv-x="2060" 
d="M88 1556h152l313 -1384q10 -49 31 -49q12 0 19 15.5t13 33.5l345 1008h139l342 -1004q12 -31 19 -42t20 -11q8 0 14 11t16 48l314 1374h147l-315 -1392q-18 -78 -59.5 -126t-116.5 -48q-80 0 -118 46t-60 111l-273 799l-272 -792q-23 -70 -61 -117t-117 -47
q-135 0 -168 147z" />
    <glyph glyph-name="X" unicode="X" horiz-adv-x="1376" 
d="M78 0l475 737q32 49 32 83q0 32 -24 67l-432 669h174l391 -616l391 616h164l-424 -667q-26 -41 -25 -69q0 -28 29 -75l480 -745h-172l-445 692l-442 -692h-172z" />
    <glyph glyph-name="Y" unicode="Y" horiz-adv-x="1249" 
d="M39 1556h166l420 -739l417 739h166l-442 -765q-18 -33 -44 -88.5t-26 -112.5v-590h-147v590q0 51 -23.5 103t-48.5 98z" />
    <glyph glyph-name="Z" unicode="Z" 
d="M121 119q0 41 18.5 73.5t42.5 65.5l819 1145q10 10 7.5 13t-13.5 3h-772v137h797q59 0 102 -27.5t43 -88.5q0 -29 -11 -59.5t-54 -90.5q-59 -82 -134 -187.5t-156 -217t-160 -223t-149.5 -209t-126 -175t-87.5 -118.5q-14 -23 -2 -23h905v-137h-922q-74 0 -110.5 34
t-36.5 85z" />
    <glyph glyph-name="bracketleft" unicode="[" horiz-adv-x="538" 
d="M133 -20v1615q0 92 53.5 146.5t128.5 54.5h117v-131h-131q-27 -4 -37 -18.5t-10 -42.5v-1635q0 -29 10 -43t39 -20h129v-129h-117q-76 0 -129 55.5t-53 147.5z" />
    <glyph glyph-name="backslash" unicode="\" horiz-adv-x="913" 
d="M37 1591h149l650 -1593h-148z" />
    <glyph glyph-name="bracketright" unicode="]" horiz-adv-x="563" 
d="M141 -94h129q49 10 49 63v1635q0 27 -10 41t-39 18h-129v133h115q78 0 131 -55t53 -148v-1616q0 -109 -69 -161q-51 -39 -115 -39h-115v129z" />
    <glyph glyph-name="asciicircum" unicode="^" horiz-adv-x="2283" 
d="M158 524q0 123 43 226.5t116.5 176t174 113.5t219.5 41q186 0 307 -81.5t178 -215.5q18 -41 27 -96q10 -47 14 -109.5t-8 -138.5h-783q2 -45 22.5 -89t56.5 -77.5t90.5 -55t127.5 -21.5q78 0 143.5 22.5t117.5 61.5l153 -175q-74 -68 -185.5 -104.5t-256.5 -36.5
q-106 0 -206.5 32t-178.5 100.5t-125 175t-47 251.5zM461 655h479q-18 98 -75.5 151.5t-155.5 53.5t-164 -56.5t-84 -148.5zM1489 -6v1055h285v-111h4q51 74 127.5 104.5t158.5 30.5q31 0 71 -8t69 -18v-256q-31 12 -77 20t-79 8q-84 0 -137 -27.5t-84 -74.5t-42 -104.5
t-11 -116.5v-502h-285z" />
    <glyph glyph-name="underscore" unicode="_" horiz-adv-x="1183" 
d="M143 -354h901v-72h-901v72z" />
    <glyph glyph-name="grave" unicode="`" horiz-adv-x="1935" 
d="M238 774v707q0 37 24.5 61.5t63.5 24.5q37 0 61.5 -22.5t34.5 -49.5l186 -414l185 414q10 27 34.5 49.5t61.5 22.5q39 0 63.5 -24.5t24.5 -61.5v-707h-92v688q0 10 -6 2l-232 -514h-82l-229 514q-6 12 -6 2v-692h-92zM1108 1163q0 86 28.5 161t82 128t126 85t164.5 32
t168 -34t142 -103l-70 -62q-51 57 -109.5 85t-128.5 28q-72 0 -128 -24.5t-96 -66.5t-61.5 -99.5t-21.5 -127.5q0 -68 21.5 -125t61.5 -101t96.5 -67.5t127.5 -23.5q80 0 140.5 22.5t122.5 79.5l49 -69q-70 -63 -145.5 -91t-166.5 -28q-92 0 -165.5 29.5t-127 84t-82 128
t-28.5 159.5z" />
    <glyph glyph-name="a" unicode="a" horiz-adv-x="1349" 
d="M133 520q0 117 38 221.5t107.5 181t171 122t230.5 45.5q115 0 200 -37t142 -103v111h135v-1061h-127l-2 8q-6 37 -28.5 41t-43.5 -2q-37 -12 -69.5 -21.5t-67.5 -21.5q-37 -8 -72.5 -14t-80.5 -6q-121 0 -219.5 37.5t-168 107.5t-107.5 168t-38 223zM279 524
q0 -90 25.5 -166.5t76.5 -132t125 -86t174 -30.5q94 0 182 28.5t154 65.5v426q0 80 -26.5 142.5t-71 105.5t-105.5 66.5t-127 23.5q-102 0 -178 -36t-127 -95.5t-76.5 -140.5t-25.5 -171z" />
    <glyph glyph-name="b" unicode="b" horiz-adv-x="1347" 
d="M195 0v1575h137v-672q68 92 169 137t220 45q115 0 208 -39.5t158.5 -110.5t100.5 -170t35 -218q0 -117 -37 -220.5t-104.5 -178t-164 -117.5t-217.5 -43q-98 0 -163.5 18.5t-137.5 50.5q-35 18 -51 6t-16 -40v-23h-137zM332 231q68 -47 157 -84.5t201 -37.5
q96 0 170 33.5t121 94t71.5 139.5t24.5 171q0 84 -22.5 158.5t-67.5 131t-113.5 89t-160.5 32.5q-80 0 -149.5 -28.5t-122 -80.5t-81 -125t-28.5 -163v-330z" />
    <glyph glyph-name="c" unicode="c" horiz-adv-x="1169" 
d="M133 537q0 117 39 217t108.5 173.5t166 115.5t212.5 42q147 0 246 -42t185 -138l-101 -86q-72 74 -148.5 109t-181.5 35q-86 0 -156.5 -35t-120.5 -91.5t-76.5 -131t-26.5 -156.5q0 -102 27.5 -183t79.5 -137.5t124 -87t162 -30.5q94 0 182 35.5t164 103.5l80 -100
q-96 -88 -204 -125t-232 -37q-127 0 -224.5 42t-166 114.5t-103.5 173t-35 219.5z" />
    <glyph glyph-name="d" unicode="d" horiz-adv-x="1345" 
d="M133 535q0 117 38 217t107.5 173.5t167 115.5t216.5 42q125 0 213 -37.5t147 -97.5v629h133v-1577h-133v29q0 18 -7 26t-16.5 9.5t-22.5 -2t-26 -7.5q-61 -29 -140 -48t-157 -19q-127 0 -224 42t-162.5 114.5t-99.5 173t-34 217.5zM276 537q0 -88 24 -165t71 -136.5
t119.5 -93t171.5 -33.5q119 0 200.5 33.5t149.5 82.5v418q0 70 -25.5 127t-70 99t-109 67t-139.5 25q-92 0 -165 -34t-123 -90.5t-77 -133t-27 -166.5z" />
    <glyph glyph-name="e" unicode="e" horiz-adv-x="1267" 
d="M133 535q0 119 38 220t105.5 175t163 117t207.5 43q109 0 198 -34t152.5 -97.5t100.5 -150.5t43 -194q0 -25 2 -43t4 -34.5t2 -22.5h-868q2 -92 29.5 -166t78.5 -128t125 -84t170 -30q106 0 194.5 32t170.5 91l65 -106q-92 -70 -199.5 -106.5t-242.5 -36.5
q-127 0 -228.5 41.5t-170 116.5t-104.5 176.5t-36 220.5zM285 635h706q-18 145 -103 239.5t-241 94.5q-72 0 -134 -27t-109.5 -72t-77 -106t-41.5 -129z" />
    <glyph glyph-name="f" unicode="f" horiz-adv-x="808" 
d="M201 0v1153q0 86 22.5 158.5t65.5 127t109.5 84t152.5 29.5q59 0 125.5 -18t136.5 -64l-45 -116q-80 47 -126 59t-85 12q-115 0 -165 -72.5t-50 -193.5v-133h377v-133h-377v-893h-141z" />
    <glyph glyph-name="g" unicode="g" horiz-adv-x="1341" 
d="M131 532q0 115 37 216.5t106.5 175t172 116.5t229.5 43q115 0 202 -30.5t147 -87t92 -133t32 -164.5v-674v-29q0 -110 -28 -201q-32 -102 -96 -175.5t-160.5 -112.5t-223.5 -39q-92 0 -182 17.5t-160 53.5l31 125q68 -33 146.5 -52t162.5 -19q92 0 160.5 29.5t116 84
t70 131t22.5 166.5v25q0 49 -23.5 52t-52.5 -7q-78 -33 -145.5 -47t-135.5 -14q-127 0 -223 42t-162.5 116.5t-100.5 174.5t-34 217zM281 535q0 -88 22.5 -165t68.5 -136.5t118.5 -93.5t175.5 -34q102 0 188 32t150 73v440q0 147 -95.5 228.5t-242.5 81.5q-92 0 -163 -34
t-121 -92.5t-75.5 -136t-25.5 -163.5z" />
    <glyph glyph-name="h" unicode="h" horiz-adv-x="1265" 
d="M195 0v1573h145v-627q57 72 148.5 106.5t193.5 34.5q203 0 313.5 -116.5t110.5 -323.5v-647h-148v639q0 143 -67.5 231t-218.5 88q-70 0 -131.5 -22.5t-105.5 -65.5t-69.5 -105.5t-25.5 -143.5v-621h-145z" />
    <glyph glyph-name="i" unicode="i" horiz-adv-x="573" 
d="M195 1370q0 94 94 94t94 -94q0 -98 -94 -98t-94 98zM217 0v1061h143v-1061h-143z" />
    <glyph glyph-name="j" unicode="j" horiz-adv-x="571" 
d="M-123 -520l10 133q43 -4 80 -4q67 0 112 14q69 23 102.5 68t39.5 100t6 107v1163h140v-1170q0 -86 -20.5 -166.5t-75 -140t-150.5 -89.5q-65 -20 -153 -20q-43 0 -91 5zM203 1370q0 94 96 94q92 0 92 -94q0 -98 -92 -98q-96 0 -96 98z" />
    <glyph glyph-name="k" unicode="k" horiz-adv-x="1165" 
d="M195 0v1573h141v-928h96q68 0 121 5t96 27.5t81 71t75 132.5l82 180h155l-127 -268q-61 -137 -170 -207l373 -586h-174l-256 412q-41 61 -70.5 84.5t-91.5 23.5h-190v-520h-141z" />
    <glyph glyph-name="l" unicode="l" horiz-adv-x="530" 
d="M195 0v1573h143v-1573h-143z" />
    <glyph glyph-name="m" unicode="m" horiz-adv-x="1929" 
d="M201 0v938q98 61 205.5 101t232.5 40q250 0 352 -133q61 59 155.5 96t213.5 37q197 0 300 -96t103 -307v-676h-149v659q0 70 -10.5 125.5t-41 93t-80.5 56t-132 18.5q-66 0 -118 -15t-92 -40t-62.5 -59.5t-22.5 -71.5v-766h-146v711q0 129 -63.5 185t-208.5 56
q-80 0 -160 -25.5t-133 -58.5v-868h-143z" />
    <glyph glyph-name="n" unicode="n" horiz-adv-x="1292" 
d="M201 0v938q94 66 217 105.5t239 39.5q221 0 346 -96t125 -303v-684h-149v655q0 301 -328 301q-82 0 -169 -26.5t-138 -61.5v-868h-143z" />
    <glyph glyph-name="o" unicode="o" horiz-adv-x="1320" 
d="M123 537q0 117 40 217t110.5 175t170 118t215.5 43q119 0 218.5 -42t172 -116t110.5 -175.5t38 -219.5q0 -119 -38 -219.5t-110.5 -176t-172 -117.5t-218.5 -42q-117 0 -216 43t-169.5 118.5t-110.5 176t-40 217.5zM268 541q0 -90 27 -168t77 -138.5t121.5 -94.5
t165.5 -34q88 0 162 33t125 91.5t80 137t29 173.5q0 84 -29 160.5t-81 135t-124.5 94.5t-161.5 36q-90 0 -163.5 -35t-123.5 -92.5t-77 -135t-27 -163.5z" />
    <glyph glyph-name="p" unicode="p" horiz-adv-x="1304" 
d="M154 -444v1048q0 104 32.5 192.5t97 153t156.5 100t213 35.5q115 0 210 -35.5t164 -105.5t106.5 -171t37.5 -228q0 -109 -31.5 -210.5t-98 -179t-168 -124.5t-242.5 -47q-74 0 -136.5 11t-134.5 42q-25 12 -44 5t-19 -38v-448h-143zM299 211q90 -51 168 -74.5t170 -23.5
q100 0 173 34.5t119 92t69.5 135.5t23.5 170q0 86 -24.5 159.5t-70.5 129t-116 87t-160 31.5q-178 0 -265 -99t-87 -265v-377z" />
    <glyph glyph-name="q" unicode="q" horiz-adv-x="1339" 
d="M133 528q0 117 40 219.5t110.5 176t170 116.5t218.5 43q102 0 190 -28.5t151.5 -84t100.5 -138t37 -193.5v-907q0 -61 68 -62h51v-121h-62q-100 0 -151 49.5t-51 143.5v258q0 31 -18.5 38t-41.5 -3q-59 -25 -134 -40t-157 -15q-123 0 -220 39.5t-164.5 111.5t-102.5 173
t-35 224zM279 535q0 -86 22.5 -163t68.5 -136.5t117.5 -92t171.5 -32.5q98 0 177 21.5t168 57.5v443q0 152 -88.5 235.5t-247.5 83.5q-90 0 -163 -32.5t-123 -89t-76.5 -133t-26.5 -162.5z" />
    <glyph glyph-name="r" unicode="r" horiz-adv-x="921" 
d="M184 0v846q0 72 41 119t102.5 74.5t131 37.5t127.5 10q94 0 184 -24.5t148 -104.5l-107 -86q-37 49 -102.5 69t-122.5 20q-43 0 -85 -6.5t-83 -22.5q-55 -25 -72.5 -53.5t-17.5 -85.5v-793h-144z" />
    <glyph glyph-name="s" unicode="s" horiz-adv-x="1054" 
d="M90 166l125 61q39 -78 108.5 -106.5t196.5 -28.5q84 0 140.5 12.5t90 34t48 50t14.5 63.5q0 88 -79 139t-199 84q-92 27 -165 55.5t-125 68.5t-79 92t-27 122q0 139 104.5 204.5t282.5 65.5q49 0 104.5 -4t109 -20.5t100.5 -53t78 -98.5l-117 -59q-39 72 -115 95.5
t-168 23.5q-41 0 -83 -7.5t-75.5 -22.5t-56 -43t-22.5 -69q0 -31 10 -58.5t42 -54t88 -51t150 -51.5q72 -20 140.5 -47.5t122 -67.5t85 -95.5t31.5 -131.5q0 -66 -19.5 -118t-69.5 -92t-135 -62.5t-218 -22.5q-68 0 -132.5 10.5t-118.5 32t-97 58.5t-70 92z" />
    <glyph glyph-name="t" unicode="t" horiz-adv-x="804" 
d="M188 324v1024h144v-287h354v-133h-354v-596q0 -102 51 -158.5t154 -56.5q59 0 117.5 13t109.5 32v-125q-53 -25 -121 -36t-127 -11q-158 0 -243 88t-85 246z" />
    <glyph glyph-name="u" unicode="u" horiz-adv-x="1271" 
d="M176 399v660h143v-653q0 -68 18.5 -123.5t59.5 -95.5t109.5 -61.5t167.5 -21.5q27 0 61.5 2.5t69.5 6.5t68.5 10t58.5 14v922h143v-1022q-88 -31 -191.5 -47.5t-215.5 -16.5q-252 0 -372 109.5t-120 316.5z" />
    <glyph glyph-name="v" unicode="v" horiz-adv-x="1185" 
d="M66 1061h157l324 -848q14 -39 28.5 -67.5t30.5 -28.5q18 0 32.5 27.5t29.5 68.5l311 848h151l-331 -891q-14 -33 -30.5 -65.5t-38 -59.5t-53.5 -42t-71 -15q-43 0 -72.5 15t-50 40t-37 58.5t-32.5 70.5z" />
    <glyph glyph-name="w" unicode="w" horiz-adv-x="1798" 
d="M66 1063h151l279 -899q6 -18 14 -33.5t20 -15.5t21.5 15t13.5 36l275 895q33 0 44 1t20 1t21.5 -1t43.5 -1l260 -895q8 -23 17 -37t22 -14q10 0 20 15t17 36l278 897h148l-295 -932q-23 -70 -63 -108.5t-111 -38.5q-72 0 -111 39.5t-61 117.5l-189 658l-201 -658
q-16 -61 -56 -110t-116 -49q-70 0 -109.5 43t-60.5 110z" />
    <glyph glyph-name="x" unicode="x" horiz-adv-x="1230" 
d="M104 0l357 489q36 49 36 79q0 29 -30 65l-322 428h174l289 -391l289 391h170l-319 -428q-27 -34 -27 -64q0 -32 35 -80l358 -489h-172l-338 459l-332 -459h-168z" />
    <glyph glyph-name="y" unicode="y" horiz-adv-x="1345" 
d="M188 424v637h142v-629q0 -68 17.5 -126t56 -102t100 -69.5t151.5 -25.5q70 0 159 17t171 58v877h141v-1061q0 -127 -31.5 -229.5t-94 -175t-156.5 -112.5t-219 -40q-94 0 -171 16.5t-149 55.5l31 125q70 -35 135.5 -53.5t149.5 -18.5q94 0 162.5 30.5t112.5 84t66.5 130
t22.5 167.5v67q-70 -31 -150.5 -49t-179.5 -18q-215 0 -341 112.5t-126 331.5z" />
    <glyph glyph-name="z" unicode="z" horiz-adv-x="1046" 
d="M131 100q0 39 20.5 75t47.5 69l530 686h-534v131h575q51 0 84 -26.5t33 -71.5q0 -31 -12.5 -60t-45.5 -72q-31 -39 -69.5 -90t-81.5 -107t-88 -114.5t-88 -113.5q-102 -131 -209 -273h614v-133h-659q-49 0 -83 24.5t-34 75.5z" />
    <glyph glyph-name="braceleft" unicode="{" horiz-adv-x="792" 
d="M115 721v121q104 0 165.5 48t61.5 159v413q0 168 104.5 256t266.5 88v-127q-106 0 -167 -47t-61 -159v-426q0 -90 -41 -160t-102 -105q66 -35 104.5 -103.5t38.5 -158.5v-426q0 -115 59.5 -161t168.5 -46v-133q-80 0 -148.5 23.5t-118 67.5t-77 108.5t-27.5 148.5v414
q0 104 -62.5 154.5t-164.5 50.5z" />
    <glyph glyph-name="bar" unicode="|" horiz-adv-x="489" 
d="M176 -115v1895h135v-1895h-135z" />
    <glyph glyph-name="braceright" unicode="}" horiz-adv-x="841" 
d="M133 -113q109 0 168 46.5t59 160.5v426q0 90 39 159t103 103q-59 35 -100.5 104.5t-41.5 160.5v426q0 113 -60 159.5t-167 46.5v127q162 0 265.5 -88t103.5 -256v-413q0 -111 62.5 -159t164.5 -48v-121q-100 0 -163.5 -50t-63.5 -155v-414q0 -84 -28 -148.5t-76 -108.5
t-116.5 -67.5t-148.5 -23.5v133z" />
    <glyph glyph-name="asciitilde" unicode="~" horiz-adv-x="1916" 
d="M238 774v707q0 37 24.5 61.5t63.5 24.5q37 0 61.5 -22.5t34.5 -49.5l186 -414l185 414q10 27 34.5 49.5t61.5 22.5q39 0 63.5 -24.5t24.5 -61.5v-707h-92v688q0 10 -6 2l-232 -514h-82l-229 514q-6 12 -6 2v-692h-92zM1151 887v180v332q0 76 50 118t128 42h115
q88 0 156.5 -32t115.5 -86.5t69.5 -126t22.5 -151.5q0 -78 -22.5 -148.5t-66.5 -123.5t-112.5 -85t-158.5 -32h-180q-49 0 -83 31t-34 82zM1247 881q0 -23 25 -23h172q70 0 119 24.5t81.5 65.5t48 96.5t15.5 116.5q0 63 -16.5 120.5t-50 101.5t-83 69t-116.5 25h-105
q-39 0 -64.5 -18.5t-25.5 -55.5v-522z" />
    <glyph glyph-name="uni00A0" unicode="&#xa0;" horiz-adv-x="735" 
 />
    <glyph glyph-name="exclamdown" unicode="&#xa1;" horiz-adv-x="417" 
d="M109 1432q0 45 23.5 74.5t72.5 29.5q51 0 77.5 -27.5t26.5 -76.5q0 -51 -27.5 -77t-76.5 -26q-96 1 -96 103zM141 -72v1225h135v-1225h-135z" />
    <glyph glyph-name="cent" unicode="&#xa2;" horiz-adv-x="1114" 
d="M98 530q0 104 31 196.5t88 164.5t138 118t180 62v127h133v-123q123 -8 211 -54t168 -132l-97 -90q-119 131 -282 145v-829q84 6 161.5 38.5t153.5 100.5l76 -98q-84 -78 -183.5 -121t-207.5 -53v-142h-133v148q-102 12 -184.5 58t-138.5 116.5t-85 164.5t-29 203z
M238 543q0 -178 78.5 -285.5t218.5 -136.5v817q-68 -14 -123.5 -50t-94 -89.5t-59 -118.5t-20.5 -137z" />
    <glyph glyph-name="sterling" unicode="&#xa3;" horiz-adv-x="1028" 
d="M174 0v1071q0 98 28.5 179t83 138.5t133.5 89t177 31.5q143 0 241.5 -72.5t151.5 -207.5l-121 -66q-37 109 -102.5 162t-169.5 53q-133 0 -210 -83t-73 -222q0 -25 1 -59.5t1 -70.5v-71v-55h398v-131h-400v-555h705v-131h-844z" />
    <glyph glyph-name="currency" unicode="&#xa4;" horiz-adv-x="905" 
d="M143 1012l50 47l102 -98q70 55 168 55q92 0 158 -51l90 90l47 -51l-88 -91q51 -68 51 -159q0 -100 -55 -166l100 -101l-49 -51l-103 105q-66 -47 -151 -47q-92 0 -162 51l-100 -103l-51 54l102 102q-27 31 -39 72t-12 84q0 88 47 155zM268 756q0 -92 51 -146
q51 -57 144 -57q88 0 141 57q51 53 51 146q0 86 -53 147q-53 55 -139 55q-92 0 -144 -55q-51 -55 -51 -147z" />
    <glyph glyph-name="yen" unicode="&#xa5;" horiz-adv-x="1259" 
d="M98 1552h152l358 -710q6 -10 9.5 -17.5t11.5 -7.5q2 0 8 4t16 21l363 710h147l-368 -739h311v-127h-404v-237h404v-134h-404v-315h-145v315h-401v134h401v237h-401v127h311z" />
    <glyph glyph-name="brokenbar" unicode="&#xa6;" horiz-adv-x="364" 
d="M143 -158v660h80v-660h-80zM143 717v667h80v-667h-80z" />
    <glyph glyph-name="section" unicode="&#xa7;" horiz-adv-x="1099" 
d="M72 76l123 65q47 -84 125.5 -118.5t214.5 -34.5q94 0 155.5 16t99 44t54 63.5t16.5 76.5q0 49 -26.5 90t-70.5 74t-104.5 59.5t-128.5 51.5q-199 68 -296 158t-97 239q0 61 20.5 108.5t63.5 84.5q-78 86 -78 209q0 145 107.5 224t302.5 79q53 0 111.5 -5.5t114 -23.5
t105.5 -56t83 -104l-115 -67q-45 80 -126 106.5t-179 26.5q-45 0 -91 -7.5t-84 -26.5t-63.5 -51t-25.5 -81q0 -37 12 -71t46 -65.5t95.5 -64.5t161.5 -69q78 -29 150.5 -60t127 -74t86 -102t31.5 -141q0 -121 -82 -209q41 -43 64.5 -96.5t23.5 -120.5q0 -66 -20.5 -128.5
t-73.5 -109.5t-146 -74.5t-237 -27.5q-74 0 -142.5 12t-127.5 38t-105 66t-75 97zM279 868q0 -35 10 -68.5t41.5 -67.5t91 -67.5t160.5 -68.5q57 -20 112.5 -43t106.5 -51q27 25 37 55.5t10 60.5q0 49 -22.5 87t-61.5 68t-93.5 54.5t-117.5 46.5q-63 23 -119.5 46.5
t-105.5 52.5q-49 -42 -49 -105z" />
    <glyph glyph-name="dieresis" unicode="&#xa8;" horiz-adv-x="706" 
d="M143 1090q0 41 21.5 64.5t60.5 23.5q45 0 66.5 -24t21.5 -64q0 -41 -21.5 -66t-66.5 -25q-39 0 -60.5 25t-21.5 66zM395 1090q0 41 21.5 64.5t62.5 23.5q43 0 64.5 -24t21.5 -64q0 -41 -21.5 -66t-64.5 -25q-41 0 -62.5 25t-21.5 66z" />
    <glyph glyph-name="copyright" unicode="&#xa9;" horiz-adv-x="1427" 
d="M135 983q0 127 41 235.5t117 186.5t182.5 121t239.5 43t238.5 -43t182 -121t117.5 -186.5t41 -235.5q0 -129 -41 -236.5t-117.5 -184.5t-182 -121t-238.5 -44t-239.5 44t-182.5 121t-117 184.5t-41 236.5zM233 983q0 -111 34 -201t95.5 -153.5t151.5 -98t201 -34.5
t200 34.5t151 98t95 153.5t33 201q0 106 -33 197.5t-95 156t-151.5 99t-199.5 34.5q-111 0 -201 -34.5t-151.5 -99t-95.5 -156t-34 -197.5zM369 985q0 76 24.5 144.5t69.5 121t111.5 82t150.5 29.5q78 0 148.5 -31t127.5 -102l-71 -68q-45 57 -95.5 82t-109.5 25
q-61 0 -108.5 -22.5t-81 -61.5t-50 -89.5t-16.5 -107.5q0 -59 16.5 -110.5t48 -89t80 -59t111.5 -21.5q61 0 112.5 18t106.5 74l55 -74q-59 -61 -129.5 -87t-144.5 -26q-84 0 -150.5 29t-111.5 80t-69.5 118.5t-24.5 145.5z" />
    <glyph glyph-name="ordfeminine" unicode="&#xaa;" horiz-adv-x="944" 
d="M143 961q0 147 90.5 235t237.5 88q141 0 236 -90v80h86v-623h-84v92q-45 -51 -106.5 -78.5t-129.5 -27.5q-74 0 -133 23.5t-103 65.5t-69 101.5t-25 133.5zM223 963q0 -115 67.5 -182.5t182.5 -67.5q104 0 172 67.5t68 177.5q0 119 -57.5 186.5t-182.5 67.5
q-115 0 -182.5 -68t-67.5 -181z" />
    <glyph glyph-name="guillemotleft" unicode="&#xab;" horiz-adv-x="991" 
d="M104 608l318 412h158l-314 -412l314 -411h-158zM426 608l317 412h162l-315 -412l315 -411h-162z" />
    <glyph glyph-name="logicalnot" unicode="&#xac;" horiz-adv-x="1302" 
d="M123 702v129h1059v-129h-1059z" />
    <glyph glyph-name="uni00AD" unicode="&#xad;" horiz-adv-x="1052" 
d="M174 506v125h705v-125h-705z" />
    <glyph glyph-name="registered" unicode="&#xae;" horiz-adv-x="1427" 
d="M135 983q0 127 41 235.5t117 186.5t182.5 121t239.5 43t238.5 -43t182 -121t117.5 -186.5t41 -235.5q0 -129 -41 -236.5t-117.5 -184.5t-182 -121t-238.5 -44t-239.5 44t-182.5 121t-117 184.5t-41 236.5zM233 983q0 -111 34 -201t95.5 -153.5t151.5 -98t201 -34.5
t200 34.5t151 98t95 153.5t33 201q0 106 -33 197.5t-95 156t-151.5 99t-199.5 34.5q-111 0 -201 -34.5t-151.5 -99t-95.5 -156t-34 -197.5zM485 641v569q0 72 52.5 112t119.5 40h64q100 0 170 -53.5t70 -157.5q0 -76 -39 -128t-105 -77l184 -305h-110q-27 47 -53 90
q-25 39 -49.5 81t-45.5 77q-18 27 -31.5 37t-41.5 10h-88v-295h-97zM582 1024h135q66 0 105.5 28.5t39.5 96.5q0 63 -42 94t-99 31h-62q-78 4 -77 -68v-182z" />
    <glyph glyph-name="macron" unicode="&#xaf;" horiz-adv-x="794" 
d="M137 1182v106h522v-106h-522z" />
    <glyph glyph-name="degree" unicode="&#xb0;" horiz-adv-x="706" 
d="M111 1329q0 51 18 95t52 78t78 52.5t95 18.5t95.5 -18.5t77 -52.5t52 -78t19.5 -95t-19.5 -95t-52 -77t-76.5 -52.5t-96 -19.5q-51 0 -95 19.5t-78 52.5t-52 77t-18 95zM199 1329q0 -63 45 -109t110 -46q63 0 108.5 46t45.5 109t-45 109.5t-109 46.5q-66 0 -110.5 -46.5
t-44.5 -109.5z" />
    <glyph glyph-name="plusminus" unicode="&#xb1;" horiz-adv-x="1081" 
d="M143 268v119h789v-119h-789zM147 803v121h334v348h119v-348h340v-121h-340v-348h-119v348h-334z" />
    <glyph glyph-name="uni00B2" unicode="&#xb2;" horiz-adv-x="884" 
d="M170 1315q31 106 97.5 156.5t172.5 50.5q121 0 194 -56.5t73 -187.5q0 -92 -69 -161.5t-187 -131.5q-27 -14 -55.5 -37.5t-52.5 -52.5t-40 -63.5t-16 -69.5v-82h407v-96h-508l-2 145q0 121 65.5 205t166.5 137q27 14 59.5 34.5t60 46.5t47 56.5t19.5 65.5q0 82 -42 116.5
t-120 34.5q-72 0 -114.5 -34.5t-61.5 -112.5z" />
    <glyph glyph-name="uni00B3" unicode="&#xb3;" horiz-adv-x="958" 
d="M164 834l110 30q12 -57 33 -95t45.5 -59.5t57 -29.5t71.5 -8q84 0 135.5 52t51.5 144q0 84 -55.5 133.5t-147.5 49.5h-72v104h66q72 0 109.5 45t37.5 105q0 57 -34.5 89.5t-92.5 32.5q-61 0 -96 -32.5t-59 -106.5l-109 35q37 113 103.5 163t160.5 50q49 0 93 -16.5
t79 -46t55.5 -72.5t20.5 -98q0 -111 -96 -181q72 -33 116 -98.5t44 -157.5q0 -70 -26 -126t-68 -95t-97 -60.5t-119 -21.5q-119 0 -199.5 58.5t-117.5 212.5z" />
    <glyph glyph-name="acute" unicode="&#xb4;" horiz-adv-x="591" 
d="M123 995l196 267h156l-242 -267h-110z" />
    <glyph glyph-name="uni00B5" unicode="&#xb5;" horiz-adv-x="1130" 
d="M143 -397v1251h76v-2h2v-508q0 -125 72 -207q74 -86 199 -86q55 0 104 17q10 8 20 12q23 10 39.5 24.5t34.5 32.5q72 78 72 207v508h78v-483q0 -168 -88 -275q-51 -59 -119 -86q-12 -6 -20.5 -11t-12.5 -20q-4 -8 -4 -18t2 -20q2 -25 24.5 -42.5t56.5 -28.5t74 -18.5
t76 -9.5v-57q-51 0 -105 10t-98 29.5t-74 49.5t-30 71v20q0 10 4 21h-34q-180 0 -273 129v-510h-76z" />
    <glyph glyph-name="paragraph" unicode="&#xb6;" horiz-adv-x="1075" 
d="M143 1001q0 76 25 139.5t69 108.5t105 69.5t133 24.5h182q94 0 144.5 -53t50.5 -139v-1266h-125v1268q0 31 -12.5 46t-48.5 20h-39v-1334h-123v779q-72 0 -137.5 21.5t-115.5 63.5t-79 104t-29 148z" />
    <glyph glyph-name="periodcentered" unicode="&#xb7;" horiz-adv-x="417" 
d="M115 655q0 92 96 93q92 0 92 -93q0 -98 -92 -98q-96 0 -96 98z" />
    <glyph glyph-name="cedilla" unicode="&#xb8;" horiz-adv-x="763" 
d="M145 -338l31 84q61 -39 107.5 -52t83.5 -13q59 -2 86.5 23.5t25.5 62.5q0 70 -90 71q-51 2 -108 -10l43 270l90 -4l-19 -123q-4 -20 11.5 -28.5t29.5 -8.5q70 -6 115 -49t45 -112q0 -96 -66.5 -142.5t-158.5 -42.5q-51 2 -110 15.5t-116 58.5z" />
    <glyph glyph-name="uni00B9" unicode="&#xb9;" horiz-adv-x="542" 
d="M174 1292v97l96 65q49 33 75 19.5t26 -72.5v-821h-86v784z" />
    <glyph glyph-name="ordmasculine" unicode="&#xba;" horiz-adv-x="802" 
d="M84 965q0 68 23.5 127t65.5 102t100.5 65.5t129.5 22.5q145 0 230.5 -86t85.5 -231q0 -143 -86 -232.5t-230 -89.5q-72 0 -130 24.5t-100 66.5t-65.5 100.5t-23.5 130.5zM164 967q0 -53 16.5 -98.5t48 -79t76.5 -53t98 -19.5q106 0 173 71.5t67 178.5q0 106 -66.5 178
t-173.5 72q-53 0 -98 -19.5t-75.5 -54.5t-48 -80t-17.5 -96z" />
    <glyph glyph-name="guillemotright" unicode="&#xbb;" horiz-adv-x="991" 
d="M88 197l311 411l-311 412h160l315 -412l-315 -411h-160zM414 197l313 411l-313 412h155l318 -412l-318 -411h-155z" />
    <glyph glyph-name="onequarter" unicode="&#xbc;" horiz-adv-x="1781" 
d="M174 1292v97l96 65q49 33 75 19.5t26 -72.5v-821h-86v784zM227 -27l1020 1565h92l-1017 -1565h-95zM963 324q0 20 7 37.5t19 33.5l393 545h105v-596h121v-98h-121v-246h-107v246h-309q-45 0 -76.5 17.5t-31.5 60.5zM1081 344h2h297v418z" />
    <glyph glyph-name="onehalf" unicode="&#xbd;" horiz-adv-x="1794" 
d="M174 1292v97l96 65q49 33 75 19.5t26 -72.5v-821h-86v784zM227 -27l1020 1565h92l-1017 -1565h-95zM1083 729q31 109 97.5 159t173.5 50q121 0 193.5 -56.5t72.5 -187.5q0 -92 -68.5 -161.5t-187.5 -133.5q-27 -12 -55.5 -35.5t-52 -52t-40 -63.5t-16.5 -72v-82h410v-94
h-510l-2 145q0 121 65.5 205t165.5 137q27 14 59.5 35t60.5 45.5t47.5 56t19.5 66.5q0 82 -42 116t-120 34q-72 0 -115 -34t-61 -112z" />
    <glyph glyph-name="threequarters" unicode="&#xbe;" horiz-adv-x="1855" 
d="M164 834l110 30q12 -57 33 -95t45.5 -59.5t57 -29.5t71.5 -8q84 0 135.5 52t51.5 144q0 84 -55.5 133.5t-147.5 49.5h-72v104h66q72 0 109.5 45t37.5 105q0 57 -34.5 89.5t-92.5 32.5q-61 0 -96 -32.5t-59 -106.5l-109 35q37 113 103.5 163t160.5 50q49 0 93 -16.5
t79 -46t55.5 -72.5t20.5 -98q0 -111 -96 -181q72 -33 116 -98.5t44 -157.5q0 -70 -26 -126t-68 -95t-97 -60.5t-119 -21.5q-119 0 -199.5 58.5t-117.5 212.5zM436 -27l1018 1565h90l-1020 -1565h-88zM1038 324q0 20 7.5 37.5t17.5 33.5l397 545h105v-596h121v-98h-121v-246
h-109v246h-307q-45 0 -78 17.5t-33 60.5zM1155 344h4h297v418z" />
    <glyph glyph-name="questiondown" unicode="&#xbf;" horiz-adv-x="1001" 
d="M106 295q0 80 27 142.5t66 115.5t85 101t85 101.5t65.5 116t26.5 144.5v137h139v-133q0 -86 -20.5 -152.5t-54 -123t-80 -108.5t-93.5 -110q-45 -51 -75.5 -107.5t-30.5 -125.5q0 -92 57 -149.5t193 -57.5q100 0 176 35t123 125l123 -56q-33 -72 -82.5 -117.5
t-105.5 -73.5t-116.5 -39t-119.5 -11q-190 0 -289 94t-99 252zM432 1432q0 45 22.5 74.5t73.5 29.5t78 -27.5t27 -76.5q0 -51 -27.5 -77t-77.5 -26q-96 1 -96 103z" />
    <glyph glyph-name="Agrave" unicode="&#xc0;" horiz-adv-x="1415" 
d="M63 0l474 1413q20 57 59 100t113 43q76 0 111.5 -43t56.5 -100l473 -1413h-158l-205 631h-561l-205 -631h-158zM424 2036h176l236 -328h-111zM469 764h473l-201 606q-6 18 -11 34.5t-21 16.5q-18 0 -22.5 -15t-12.5 -36z" />
    <glyph glyph-name="Aacute" unicode="&#xc1;" horiz-adv-x="1415" 
d="M63 0l474 1413q20 57 59 100t113 43q76 0 111.5 -43t56.5 -100l473 -1413h-158l-205 631h-561l-205 -631h-158zM469 764h473l-201 606q-6 18 -11 34.5t-21 16.5q-18 0 -22.5 -15t-12.5 -36zM532 1708l238 328h174l-301 -328h-111z" />
    <glyph glyph-name="Acircumflex" unicode="&#xc2;" horiz-adv-x="1415" 
d="M63 0l474 1413q20 57 59 100t113 43q76 0 111.5 -43t56.5 -100l473 -1413h-158l-205 631h-561l-205 -631h-158zM397 1706l217 279q45 55 101.5 54t101.5 -59l213 -274h-117l-200 213l-203 -213h-113zM469 764h473l-201 606q-6 18 -11 34.5t-21 16.5q-18 0 -22.5 -15
t-12.5 -36z" />
    <glyph glyph-name="Atilde" unicode="&#xc3;" horiz-adv-x="1415" 
d="M63 0l474 1413q20 57 59 100t113 43q76 0 111.5 -43t56.5 -100l473 -1413h-158l-205 631h-561l-205 -631h-158zM371 1749q45 59 84 96t104 47q66 12 108 -3t74.5 -36.5t64.5 -38t77 -8.5q27 6 58.5 24.5t64.5 67.5l73 -61q-39 -59 -85 -92t-105 -39q-70 -10 -111 5
t-72.5 35.5t-60.5 36t-72 7.5q-29 -4 -60.5 -24.5t-61.5 -67.5zM469 764h473l-201 606q-6 18 -11 34.5t-21 16.5q-18 0 -22.5 -15t-12.5 -36z" />
    <glyph glyph-name="Adieresis" unicode="&#xc4;" horiz-adv-x="1415" 
d="M63 0l474 1413q20 57 59 100t113 43q76 0 111.5 -43t56.5 -100l473 -1413h-158l-205 631h-561l-205 -631h-158zM442 1796q0 92 95 92q94 0 94 -92q0 -98 -94 -98q-95 0 -95 98zM469 764h473l-201 606q-6 18 -11 34.5t-21 16.5q-18 0 -22.5 -15t-12.5 -36zM795 1796
q0 92 94 92t94 -92q0 -98 -94 -98t-94 98z" />
    <glyph glyph-name="Aring" unicode="&#xc5;" horiz-adv-x="1415" 
d="M63 0l474 1413q20 57 59 100t113 43q76 0 111.5 -43t56.5 -100l473 -1413h-158l-205 631h-561l-205 -631h-158zM469 764h473l-201 606q-6 18 -11 34.5t-21 16.5q-18 0 -22.5 -15t-12.5 -36zM506 1905q0 92 56 148t151 56q94 0 150.5 -55t56.5 -149q0 -92 -57.5 -150.5
t-149.5 -58.5q-94 0 -150.5 58.5t-56.5 150.5zM598 1905q0 -55 30.5 -86t86.5 -31q55 0 84.5 31.5t29.5 85.5q0 51 -31.5 84.5t-82.5 33.5t-84 -33.5t-33 -84.5z" />
    <glyph glyph-name="AE" unicode="&#xc6;" horiz-adv-x="2050" 
d="M31 0l891 1386q25 39 47 70t50 52.5t61.5 33.5t82.5 12h791v-133h-750v-573h664v-127h-664v-526q0 -25 12.5 -40.5t47.5 -21.5h690v-133h-686q-88 0 -149.5 56.5t-61.5 144.5v516h-410l-459 -717h-157zM731 848h326v510q-8 -12 -25.5 -41t-43 -67t-53.5 -83l-56 -90
q-68 -106 -148 -229z" />
    <glyph glyph-name="Ccedilla" unicode="&#xc7;" horiz-adv-x="1556" 
d="M184 770q0 172 50.5 318.5t145.5 252t230 167t303 61.5q301 0 543 -248l-100 -107q-199 215 -449 216q-133 0 -239.5 -50.5t-180 -137.5t-113.5 -208t-40 -260q0 -141 40 -262t115.5 -208t183 -137t245.5 -50q125 0 239.5 44t224.5 158l84 -122q-117 -113 -253 -166.5
t-273 -57.5q-2 -6 -2 -16q-2 -6 -2 -14.5t-2 -18.5q-4 -31 31 -28q68 2 109.5 -36t41.5 -112q0 -96 -65.5 -140t-153.5 -44q-49 0 -102.5 12t-120.5 49l39 92q49 -31 100 -43t82 -10q53 0 77.5 20.5t24.5 49.5q0 33 -22.5 52t-61.5 19q-25 0 -53.5 -2t-58.5 -14l37 188
q-152 14 -273 78t-206 169.5t-130 243.5t-45 302z" />
    <glyph glyph-name="Egrave" unicode="&#xc8;" horiz-adv-x="1204" 
d="M219 0v1214q0 25 1 46.5t5 37.5q20 102 92 172t183 80q10 2 35.5 4t56.5 2h475v-131h-496q-100 0 -154.5 -46t-54.5 -156v-346h627v-136h-627v-610h744v-131h-887zM440 2036h174l238 -328h-111z" />
    <glyph glyph-name="Eacute" unicode="&#xc9;" horiz-adv-x="1204" 
d="M219 0v1214q0 25 1 46.5t5 37.5q20 102 92 172t183 80q10 2 35.5 4t56.5 2h475v-131h-496q-100 0 -154.5 -46t-54.5 -156v-346h627v-136h-627v-610h744v-131h-887zM532 1708l238 328h174l-301 -328h-111z" />
    <glyph glyph-name="Ecircumflex" unicode="&#xca;" horiz-adv-x="1204" 
d="M219 0v1214q0 25 1 46.5t5 37.5q20 102 92 172t183 80q10 2 35.5 4t56.5 2h475v-131h-496q-100 0 -154.5 -46t-54.5 -156v-346h627v-136h-627v-610h744v-131h-887zM362 1706l218 279q45 55 101 54t99 -59l215 -274h-116l-203 213l-201 -213h-113z" />
    <glyph glyph-name="Edieresis" unicode="&#xcb;" horiz-adv-x="1204" 
d="M219 0v1214q0 25 1 46.5t5 37.5q20 102 92 172t183 80q10 2 35.5 4t56.5 2h475v-131h-496q-100 0 -154.5 -46t-54.5 -156v-346h627v-136h-627v-610h744v-131h-887zM424 1796q0 92 96 92q92 0 92 -92q0 -98 -92 -98q-96 0 -96 98zM776 1796q0 92 96 92q92 0 93 -92
q0 -98 -93 -98q-96 0 -96 98z" />
    <glyph glyph-name="Igrave" unicode="&#xcc;" horiz-adv-x="567" 
d="M90 2036h176l238 -328h-111zM211 0v1556h149v-1556h-149z" />
    <glyph glyph-name="Iacute" unicode="&#xcd;" horiz-adv-x="571" 
d="M109 1708l239 328h174l-301 -328h-112zM213 0v1556h149v-1556h-149z" />
    <glyph glyph-name="Icircumflex" unicode="&#xce;" horiz-adv-x="569" 
d="M-31 1706l217 279q43 55 100.5 54t102.5 -59l213 -274h-115l-202 213l-203 -213h-113zM211 0v1556h149v-1556h-149z" />
    <glyph glyph-name="Idieresis" unicode="&#xcf;" horiz-adv-x="567" 
d="M16 1796q0 92 95 92q92 0 92 -92q0 -98 -92 -98q-95 0 -95 98zM213 0v1556h149v-1556h-149zM367 1796q0 92 96 92q92 0 92 -92q0 -98 -92 -98q-96 0 -96 98z" />
    <glyph glyph-name="Eth" unicode="&#xd0;" horiz-adv-x="1323" 
d="M143 629v71h105v443q0 70 41 108q43 43 117 43h212q264 0 422 -196q143 -184 144 -457q0 -279 -127 -446q-141 -193 -406 -193h-243q-53 0 -103 35q-55 39 -55 113l-2 479h-105zM328 1143l2 -443h391v-71h-391v-479q0 -61 67 -72l248 -2q121 -2 207 43t145 129
q102 147 103 393q0 127 -31 225.5t-90 175.5q-131 176 -365 177h-219q-67 -13 -67 -76z" />
    <glyph glyph-name="Ntilde" unicode="&#xd1;" horiz-adv-x="1593" 
d="M219 0v1409q0 72 39 117t111 45t115.5 -41t74.5 -109l621 -1257q6 -14 17 -27.5t20 -13.5q10 0 14 8t4 35v1390h141v-1406q0 -74 -40 -120t-111 -46q-117 0 -168 104q-160 324 -314.5 644.5t-316.5 643.5q-16 33 -25.5 45.5t-21.5 12.5q-18 0 -19 -33v-1401h-141z
M455 1749q45 59 82.5 96t103.5 47q66 12 108 -3t75.5 -36.5t64.5 -38t76 -8.5q27 6 58.5 24.5t63.5 67.5l74 -61q-39 -59 -85 -92t-105 -39q-68 -10 -110 5t-73.5 35.5t-60.5 36t-72 7.5q-29 -4 -60.5 -24.5t-62.5 -67.5z" />
    <glyph glyph-name="Ograve" unicode="&#xd2;" horiz-adv-x="1689" 
d="M141 776q0 162 42 307.5t129 255t220.5 174t315.5 64.5q174 0 304 -64.5t219 -174t133 -255t44 -307.5q0 -156 -44 -300t-133 -255.5t-219 -179.5t-302 -68q-180 0 -313.5 64.5t-221.5 175.5t-131 255t-43 308zM289 778q0 -137 33.5 -258t101.5 -212t173 -144t253 -53
q143 0 246.5 54t170 146t97.5 213t31 254q0 137 -33 258t-101.5 211t-171 142.5t-241.5 52.5q-147 0 -251.5 -53.5t-172.5 -142.5t-101.5 -211t-33.5 -257zM635 2036h174l238 -328h-111z" />
    <glyph glyph-name="Oacute" unicode="&#xd3;" horiz-adv-x="1689" 
d="M141 776q0 162 42 307.5t129 255t220.5 174t315.5 64.5q174 0 304 -64.5t219 -174t133 -255t44 -307.5q0 -156 -44 -300t-133 -255.5t-219 -179.5t-302 -68q-180 0 -313.5 64.5t-221.5 175.5t-131 255t-43 308zM289 778q0 -137 33.5 -258t101.5 -212t173 -144t253 -53
q143 0 246.5 54t170 146t97.5 213t31 254q0 137 -33 258t-101.5 211t-171 142.5t-241.5 52.5q-147 0 -251.5 -53.5t-172.5 -142.5t-101.5 -211t-33.5 -257zM668 1708l237 328h174l-301 -328h-110z" />
    <glyph glyph-name="Ocircumflex" unicode="&#xd4;" horiz-adv-x="1689" 
d="M141 776q0 162 42 307.5t129 255t220.5 174t315.5 64.5q174 0 304 -64.5t219 -174t133 -255t44 -307.5q0 -156 -44 -300t-133 -255.5t-219 -179.5t-302 -68q-180 0 -313.5 64.5t-221.5 175.5t-131 255t-43 308zM289 778q0 -137 33.5 -258t101.5 -212t173 -144t253 -53
q143 0 246.5 54t170 146t97.5 213t31 254q0 137 -33 258t-101.5 211t-171 142.5t-241.5 52.5q-147 0 -251.5 -53.5t-172.5 -142.5t-101.5 -211t-33.5 -257zM528 1706l217 279q45 55 102.5 54t100.5 -59l213 -274h-114l-205 213l-201 -213h-113z" />
    <glyph glyph-name="Otilde" unicode="&#xd5;" horiz-adv-x="1689" 
d="M141 776q0 162 42 307.5t129 255t220.5 174t315.5 64.5q174 0 304 -64.5t219 -174t133 -255t44 -307.5q0 -156 -44 -300t-133 -255.5t-219 -179.5t-302 -68q-180 0 -313.5 64.5t-221.5 175.5t-131 255t-43 308zM289 778q0 -137 33.5 -258t101.5 -212t173 -144t253 -53
q143 0 246.5 54t170 146t97.5 213t31 254q0 137 -33 258t-101.5 211t-171 142.5t-241.5 52.5q-147 0 -251.5 -53.5t-172.5 -142.5t-101.5 -211t-33.5 -257zM518 1749q43 59 82 96t107 47q63 12 105 -3t75 -36.5t65.5 -38t75.5 -8.5q27 6 58.5 24.5t66.5 67.5l72 -61
q-39 -59 -84 -92t-107 -39q-70 -10 -110.5 5t-71.5 35.5t-59.5 36t-73.5 7.5q-29 -4 -59.5 -24.5t-61.5 -67.5z" />
    <glyph glyph-name="Odieresis" unicode="&#xd6;" horiz-adv-x="1689" 
d="M141 776q0 162 42 307.5t129 255t220.5 174t315.5 64.5q174 0 304 -64.5t219 -174t133 -255t44 -307.5q0 -156 -44 -300t-133 -255.5t-219 -179.5t-302 -68q-180 0 -313.5 64.5t-221.5 175.5t-131 255t-43 308zM289 778q0 -137 33.5 -258t101.5 -212t173 -144t253 -53
q143 0 246.5 54t170 146t97.5 213t31 254q0 137 -33 258t-101.5 211t-171 142.5t-241.5 52.5q-147 0 -251.5 -53.5t-172.5 -142.5t-101.5 -211t-33.5 -257zM573 1796q0 92 95 92q94 0 94 -92q0 -98 -94 -98q-95 0 -95 98zM924 1796q0 92 96 92q92 0 92 -92q0 -98 -92 -98
q-96 0 -96 98z" />
    <glyph glyph-name="multiply" unicode="&#xd7;" horiz-adv-x="1148" 
d="M82 920l57 57l432 -432l433 432l57 -57l-430 -433l436 -436l-59 -59l-435 438l-434 -434l-55 59l432 434z" />
    <glyph glyph-name="Oslash" unicode="&#xd8;" horiz-adv-x="1689" 
d="M141 776q0 162 42 307.5t129 255t220.5 174t315.5 64.5q49 0 98 -5t94 -18l39 113h144l-56 -162q96 -47 167 -122.5t118 -171t71.5 -206t24.5 -229.5q0 -156 -44 -300t-133 -255.5t-219 -179.5t-302 -68q-104 0 -197 25l-43 -125h-143l57 172q-98 45 -169.5 121t-119 172
t-71 207.5t-23.5 230.5zM289 778q0 -197 67.5 -357.5t214.5 -244.5l426 1249q-35 10 -72.5 13.5t-76.5 3.5q-147 0 -251.5 -53.5t-172.5 -142.5t-101.5 -211t-33.5 -257zM696 129q35 -12 73 -15t81 -3q143 0 246.5 54t170 146t97.5 213t31 254q0 195 -66.5 353.5
t-206.5 242.5z" />
    <glyph glyph-name="Ugrave" unicode="&#xd9;" horiz-adv-x="1523" 
d="M217 516v1040h150v-1032q0 -84 12 -133q10 -59 40 -109.5t80 -87t123.5 -58t174.5 -21.5q39 0 87 4t95 13t91 20.5t75 21.5v1382h151v-1484q-113 -39 -240.5 -69t-264.5 -30q-225 0 -361.5 87t-185.5 243q-27 82 -27 213zM510 2036h176l236 -328h-111z" />
    <glyph glyph-name="Uacute" unicode="&#xda;" horiz-adv-x="1523" 
d="M217 516v1040h150v-1032q0 -84 12 -133q10 -59 40 -109.5t80 -87t123.5 -58t174.5 -21.5q39 0 87 4t95 13t91 20.5t75 21.5v1382h151v-1484q-113 -39 -240.5 -69t-264.5 -30q-225 0 -361.5 87t-185.5 243q-27 82 -27 213zM592 1708l237 328h175l-302 -328h-110z" />
    <glyph glyph-name="Ucircumflex" unicode="&#xdb;" horiz-adv-x="1523" 
d="M217 516v1040h150v-1032q0 -84 12 -133q10 -59 40 -109.5t80 -87t123.5 -58t174.5 -21.5q39 0 87 4t95 13t91 20.5t75 21.5v1382h151v-1484q-113 -39 -240.5 -69t-264.5 -30q-225 0 -361.5 87t-185.5 243q-27 82 -27 213zM444 1706l218 279q45 55 101 54t99 -59l215 -274
h-116l-203 213l-201 -213h-113z" />
    <glyph glyph-name="Udieresis" unicode="&#xdc;" horiz-adv-x="1523" 
d="M217 516v1040h150v-1032q0 -84 12 -133q10 -59 40 -109.5t80 -87t123.5 -58t174.5 -21.5q39 0 87 4t95 13t91 20.5t75 21.5v1382h151v-1484q-113 -39 -240.5 -69t-264.5 -30q-225 0 -361.5 87t-185.5 243q-27 82 -27 213zM487 1796q0 92 95 92q92 0 92 -92q0 -98 -92 -98
q-95 0 -95 98zM838 1796q0 92 96 92q92 0 92 -92q0 -98 -92 -98q-96 0 -96 98z" />
    <glyph glyph-name="Yacute" unicode="&#xdd;" horiz-adv-x="1249" 
d="M567 1710l196 267h156l-242 -267h-110zM39 1556h166l420 -739l417 739h166l-442 -765q-18 -33 -44 -88.5t-26 -112.5v-590h-147v590q0 51 -23.5 103t-48.5 98z" />
    <glyph glyph-name="Thorn" unicode="&#xde;" horiz-adv-x="1079" 
d="M143 0v692v592h78v-371l17 21q8 10 18 22q104 111 289 111q86 0 157.5 -26.5t124.5 -84.5q111 -119 111 -288q0 -168 -111 -285q-111 -113 -282 -113q-180 0 -289 113q-18 16 -35 41v-424h-78zM221 666q0 -139 82 -228q82 -90 232 -90q141 0 229 90q84 90 84 228
q0 139 -84 229q-84 92 -229 92q-143 0 -230 -92q-84 -86 -84 -229z" />
    <glyph glyph-name="germandbls" unicode="&#xdf;" horiz-adv-x="1218" 
d="M195 2v746v346q0 106 24.5 196t76.5 152.5t132 97.5t190 35q174 0 266.5 -74t92.5 -229q0 -98 -43 -164t-115 -119q-88 -61 -132 -99t-44 -73q0 -20 26.5 -44.5t63.5 -48.5t72 -42t53 -27q154 -84 216.5 -190.5t62.5 -245.5q0 -74 -21.5 -143.5t-74 -124.5t-137.5 -89
t-214 -34h-174v127h195q141 0 209.5 75.5t68.5 186.5q0 102 -39 163.5t-98 103.5t-129 77t-133 82q-39 31 -67.5 69t-28.5 99q0 41 11 71.5t29.5 54.5t43 42t51.5 39q37 29 72.5 52.5t64.5 51t45 61.5t16 85q0 96 -60 138t-140 42q-86 0 -141.5 -27.5t-89.5 -76t-47 -118
t-13 -151.5v-1073h-141z" />
    <glyph glyph-name="agrave" unicode="&#xe0;" horiz-adv-x="1349" 
d="M133 520q0 117 38 221.5t107.5 181t171 122t230.5 45.5q115 0 200 -37t142 -103v111h135v-1061h-127l-2 8q-6 37 -28.5 41t-43.5 -2q-37 -12 -69.5 -21.5t-67.5 -21.5q-37 -8 -72.5 -14t-80.5 -6q-121 0 -219.5 37.5t-168 107.5t-107.5 168t-38 223zM279 524
q0 -90 25.5 -166.5t76.5 -132t125 -86t174 -30.5q94 0 182 28.5t154 65.5v426q0 80 -26.5 142.5t-71 105.5t-105.5 66.5t-127 23.5q-102 0 -178 -36t-127 -95.5t-76.5 -140.5t-25.5 -171zM371 1552h176l237 -325h-112z" />
    <glyph glyph-name="aacute" unicode="&#xe1;" horiz-adv-x="1349" 
d="M133 520q0 117 38 221.5t107.5 181t171 122t230.5 45.5q115 0 200 -37t142 -103v111h135v-1061h-127l-2 8q-6 37 -28.5 41t-43.5 -2q-37 -12 -69.5 -21.5t-67.5 -21.5q-37 -8 -72.5 -14t-80.5 -6q-121 0 -219.5 37.5t-168 107.5t-107.5 168t-38 223zM279 524
q0 -90 25.5 -166.5t76.5 -132t125 -86t174 -30.5q94 0 182 28.5t154 65.5v426q0 80 -26.5 142.5t-71 105.5t-105.5 66.5t-127 23.5q-102 0 -178 -36t-127 -95.5t-76.5 -140.5t-25.5 -171zM541 1227l237 325h174l-299 -325h-112z" />
    <glyph glyph-name="acircumflex" unicode="&#xe2;" horiz-adv-x="1349" 
d="M133 520q0 117 38 221.5t107.5 181t171 122t230.5 45.5q115 0 200 -37t142 -103v111h135v-1061h-127l-2 8q-6 37 -28.5 41t-43.5 -2q-37 -12 -69.5 -21.5t-67.5 -21.5q-37 -8 -72.5 -14t-80.5 -6q-121 0 -219.5 37.5t-168 107.5t-107.5 168t-38 223zM279 524
q0 -90 25.5 -166.5t76.5 -132t125 -86t174 -30.5q94 0 182 28.5t154 65.5v426q0 80 -26.5 142.5t-71 105.5t-105.5 66.5t-127 23.5q-102 0 -178 -36t-127 -95.5t-76.5 -140.5t-25.5 -171zM356 1225l217 278q43 55 99.5 54t101.5 -58l215 -274h-117l-202 215l-201 -215h-113z
" />
    <glyph glyph-name="atilde" unicode="&#xe3;" horiz-adv-x="1349" 
d="M133 520q0 117 38 221.5t107.5 181t171 122t230.5 45.5q115 0 200 -37t142 -103v111h135v-1061h-127l-2 8q-6 37 -28.5 41t-43.5 -2q-37 -12 -69.5 -21.5t-67.5 -21.5q-37 -8 -72.5 -14t-80.5 -6q-121 0 -219.5 37.5t-168 107.5t-107.5 168t-38 223zM279 524
q0 -90 25.5 -166.5t76.5 -132t125 -86t174 -30.5q94 0 182 28.5t154 65.5v426q0 80 -26.5 142.5t-71 105.5t-105.5 66.5t-127 23.5q-102 0 -178 -36t-127 -95.5t-76.5 -140.5t-25.5 -171zM334 1311q45 61 83 97t105 48q63 10 105.5 -5t76 -36.5t65.5 -38t77 -6.5
q27 4 58.5 22.5t64.5 67.5l73 -59q-41 -61 -86 -94t-104 -39q-72 -8 -113 7t-71.5 34.5t-59 35t-73.5 7.5q-29 -4 -60 -24.5t-61 -65.5z" />
    <glyph glyph-name="adieresis" unicode="&#xe4;" horiz-adv-x="1349" 
d="M133 520q0 117 38 221.5t107.5 181t171 122t230.5 45.5q115 0 200 -37t142 -103v111h135v-1061h-127l-2 8q-6 37 -28.5 41t-43.5 -2q-37 -12 -69.5 -21.5t-67.5 -21.5q-37 -8 -72.5 -14t-80.5 -6q-121 0 -219.5 37.5t-168 107.5t-107.5 168t-38 223zM279 524
q0 -90 25.5 -166.5t76.5 -132t125 -86t174 -30.5q94 0 182 28.5t154 65.5v426q0 80 -26.5 142.5t-71 105.5t-105.5 66.5t-127 23.5q-102 0 -178 -36t-127 -95.5t-76.5 -140.5t-25.5 -171zM403 1356q0 92 93 92q92 0 92 -92q0 -96 -92 -96q-93 0 -93 96zM754 1356q0 92 94 92
q92 0 92 -92q0 -96 -92 -96q-94 0 -94 96z" />
    <glyph glyph-name="aring" unicode="&#xe5;" horiz-adv-x="1349" 
d="M133 520q0 117 38 221.5t107.5 181t171 122t230.5 45.5q115 0 200 -37t142 -103v111h135v-1061h-127l-2 8q-6 37 -28.5 41t-43.5 -2q-37 -12 -69.5 -21.5t-67.5 -21.5q-37 -8 -72.5 -14t-80.5 -6q-121 0 -219.5 37.5t-168 107.5t-107.5 168t-38 223zM279 524
q0 -90 25.5 -166.5t76.5 -132t125 -86t174 -30.5q94 0 182 28.5t154 65.5v426q0 80 -26.5 142.5t-71 105.5t-105.5 66.5t-127 23.5q-102 0 -178 -36t-127 -95.5t-76.5 -140.5t-25.5 -171zM473 1446q0 94 56.5 150.5t150.5 56.5q92 0 149.5 -55.5t57.5 -151.5
q0 -92 -57.5 -149.5t-149.5 -57.5q-94 0 -150.5 57.5t-56.5 149.5zM563 1446q0 -55 32 -86t87 -31t85 31t30 86q0 51 -33 86t-82 35q-51 0 -85 -35t-34 -86z" />
    <glyph glyph-name="ae" unicode="&#xe6;" horiz-adv-x="2162" 
d="M141 506q0 111 37 211t106.5 176t170 121t229.5 45q168 0 272.5 -59.5t155.5 -149.5q68 102 177.5 159.5t242.5 57.5q106 0 193 -36t147.5 -99.5t97.5 -150.5t47 -189q2 -16 3 -32.5t3 -33.5q2 -18 2 -32h-856q12 -180 114.5 -281.5t283.5 -101.5q96 0 182 33.5t180 93.5
l62 -111q-106 -72 -205.5 -105.5t-224.5 -33.5q-254 0 -398 149v-137h-123q-2 4 -7 27.5t-17 23.5t-24.5 -4t-22.5 -10q-72 -25 -141.5 -40t-153.5 -15q-123 0 -221.5 37.5t-167 106.5t-106.5 166t-38 214zM285 508q0 -88 25.5 -161t76.5 -126t126 -81.5t173 -28.5
q88 0 179 27.5t155 58.5v399q0 33 -2 63.5t-6 51.5q-25 109 -109 166t-211 57q-102 0 -178 -35t-127 -92t-76.5 -134t-25.5 -165zM1171 616h699q-25 154 -108 240t-230 86q-143 0 -239.5 -86t-121.5 -240z" />
    <glyph glyph-name="ccedilla" unicode="&#xe7;" horiz-adv-x="1196" 
d="M131 530q0 115 37 213.5t106.5 172t166 115.5t214.5 42q76 0 136.5 -10t110.5 -32.5t94 -56.5t87 -83l-106 -84q-70 74 -145.5 107.5t-178.5 33.5q-88 0 -155.5 -32.5t-117.5 -89t-77 -129t-27 -154.5q0 -203 105.5 -318.5t284.5 -115.5q190 0 342 139l77 -98
q-92 -84 -186 -122t-213 -40l-12 -66q-4 -27 33 -26q63 0 105 -40t42 -104q0 -47 -18.5 -79.5t-51 -54t-72.5 -32t-81 -10.5q-102 0 -205 57l33 82q55 -29 97 -40t77 -9q57 0 82.5 22.5t25.5 57.5q0 72 -84 72q-25 0 -51 -3t-47 -12l33 187q-111 8 -197 53t-144 115.5
t-89 165.5t-31 206z" />
    <glyph glyph-name="egrave" unicode="&#xe8;" horiz-adv-x="1267" 
d="M131 535q0 119 37 220t105.5 175t163.5 117t208 43q109 0 198 -34t152.5 -97.5t100.5 -150.5t43 -194q0 -25 2 -43t3 -34.5t1 -22.5h-866q2 -92 29.5 -166t78.5 -128t125 -84t170 -30q104 0 193.5 32t171.5 91l65 -106q-92 -70 -199.5 -106.5t-242.5 -36.5
q-127 0 -228.5 41.5t-170 116.5t-104.5 176.5t-36 220.5zM283 635h706q-18 145 -103 239.5t-241 94.5q-72 0 -134 -27t-109.5 -72t-77 -106t-41.5 -129zM369 1552h176l237 -325h-112z" />
    <glyph glyph-name="eacute" unicode="&#xe9;" horiz-adv-x="1267" 
d="M131 535q0 119 37 220t105.5 175t163.5 117t208 43q109 0 198 -34t152.5 -97.5t100.5 -150.5t43 -194q0 -25 2 -43t3 -34.5t1 -22.5h-866q2 -92 29.5 -166t78.5 -128t125 -84t170 -30q104 0 193.5 32t171.5 91l65 -106q-92 -70 -199.5 -106.5t-242.5 -36.5
q-127 0 -228.5 41.5t-170 116.5t-104.5 176.5t-36 220.5zM283 635h706q-18 145 -103 239.5t-241 94.5q-72 0 -134 -27t-109.5 -72t-77 -106t-41.5 -129zM532 1227l240 325h174l-301 -325h-113z" />
    <glyph glyph-name="ecircumflex" unicode="&#xea;" horiz-adv-x="1267" 
d="M131 535q0 119 37 220t105.5 175t163.5 117t208 43q109 0 198 -34t152.5 -97.5t100.5 -150.5t43 -194q0 -25 2 -43t3 -34.5t1 -22.5h-866q2 -92 29.5 -166t78.5 -128t125 -84t170 -30q104 0 193.5 32t171.5 91l65 -106q-92 -70 -199.5 -106.5t-242.5 -36.5
q-127 0 -228.5 41.5t-170 116.5t-104.5 176.5t-36 220.5zM283 635h706q-18 145 -103 239.5t-241 94.5q-72 0 -134 -27t-109.5 -72t-77 -106t-41.5 -129zM324 1225l217 278q43 55 99 54t101 -58l215 -274h-118l-201 215l-201 -215h-112z" />
    <glyph glyph-name="edieresis" unicode="&#xeb;" horiz-adv-x="1267" 
d="M131 535q0 119 37 220t105.5 175t163.5 117t208 43q109 0 198 -34t152.5 -97.5t100.5 -150.5t43 -194q0 -25 2 -43t3 -34.5t1 -22.5h-866q2 -92 29.5 -166t78.5 -128t125 -84t170 -30q104 0 193.5 32t171.5 91l65 -106q-92 -70 -199.5 -106.5t-242.5 -36.5
q-127 0 -228.5 41.5t-170 116.5t-104.5 176.5t-36 220.5zM283 635h706q-18 145 -103 239.5t-241 94.5q-72 0 -134 -27t-109.5 -72t-77 -106t-41.5 -129zM375 1356q0 92 92 92t92 -92q0 -96 -92 -96t-92 96zM725 1356q0 92 94 92q92 0 92 -92q0 -96 -92 -96q-94 0 -94 96z
" />
    <glyph glyph-name="igrave" unicode="&#xec;" horiz-adv-x="557" 
d="M59 1552h174l238 -325h-111zM211 0v1055h141v-1055h-141z" />
    <glyph glyph-name="iacute" unicode="&#xed;" horiz-adv-x="557" 
d="M86 1227l240 325h174l-303 -325h-111zM205 0v1055h143v-1055h-143z" />
    <glyph glyph-name="icircumflex" unicode="&#xee;" horiz-adv-x="583" 
d="M-25 1225l218 278q45 55 101 54t99 -58l215 -274h-116l-203 215l-201 -215h-113zM221 0v1055h141v-1055h-141z" />
    <glyph glyph-name="idieresis" unicode="&#xef;" horiz-adv-x="571" 
d="M16 1356q0 92 95 92q92 0 92 -92q0 -96 -92 -96q-95 0 -95 96zM217 0v1055h139v-1055h-139zM367 1356q0 92 96 92q92 0 92 -92q0 -96 -92 -96q-96 0 -96 96z" />
    <glyph glyph-name="eth" unicode="&#xf0;" horiz-adv-x="1142" 
d="M143 426q0 188 123 315q119 125 307 125q195 0 314 -125q10 -12 19 -21t18 -22v359q-41 -27 -88 -37q-51 -8 -96.5 -2t-88.5 33l-18 12l-19 10q-31 14 -58.5 21.5t-55.5 3.5q-31 -8 -56.5 -26.5t-54.5 -55.5l-70 41q68 96 166 114q94 16 181 -32l20 -9l16 -12
q33 -16 61 -20t58 0q53 6 103 71v95h77v-910q0 -72 -28.5 -127t-87.5 -118q-121 -125 -312 -125q-190 0 -307 125q-123 122 -123 317zM223 430q0 -166 92 -268q94 -106 258 -107q156 0 256 109q94 109 95 266q0 158 -93 264q-94 104 -258 105q-166 0 -258 -105
q-92 -102 -92 -264z" />
    <glyph glyph-name="ntilde" unicode="&#xf1;" horiz-adv-x="1228" 
d="M176 0v938q94 66 217 105.5t240 39.5q221 0 346 -96t125 -303v-684h-152v655q0 301 -325 301q-82 0 -169 -26.5t-136 -61.5v-868h-146zM266 1311q43 61 82 97t105 48q63 10 105 -5t76 -36.5t64.5 -38t75.5 -6.5q29 4 60.5 22.5t66.5 67.5l72 -59q-39 -61 -85 -94
t-106 -39q-70 -8 -110.5 7t-71.5 34.5t-61.5 35t-73.5 7.5q-29 -4 -58.5 -24.5t-62.5 -65.5z" />
    <glyph glyph-name="ograve" unicode="&#xf2;" horiz-adv-x="1320" 
d="M123 537q0 117 40 217t110.5 175t170 118t215.5 43q119 0 218.5 -42t172 -116t110.5 -175.5t38 -219.5q0 -119 -38 -219.5t-110.5 -176t-172 -117.5t-218.5 -42q-117 0 -216 43t-169.5 118.5t-110.5 176t-40 217.5zM268 541q0 -90 27 -168t77 -138.5t121.5 -94.5
t165.5 -34q88 0 162 33t125 91.5t80 137t29 173.5q0 84 -29 160.5t-81 135t-124.5 94.5t-161.5 36q-90 0 -163.5 -35t-123.5 -92.5t-77 -135t-27 -163.5zM375 1552h174l237 -325h-112z" />
    <glyph glyph-name="oacute" unicode="&#xf3;" horiz-adv-x="1320" 
d="M123 537q0 117 40 217t110.5 175t170 118t215.5 43q119 0 218.5 -42t172 -116t110.5 -175.5t38 -219.5q0 -119 -38 -219.5t-110.5 -176t-172 -117.5t-218.5 -42q-117 0 -216 43t-169.5 118.5t-110.5 176t-40 217.5zM268 541q0 -90 27 -168t77 -138.5t121.5 -94.5
t165.5 -34q88 0 162 33t125 91.5t80 137t29 173.5q0 84 -29 160.5t-81 135t-124.5 94.5t-161.5 36q-90 0 -163.5 -35t-123.5 -92.5t-77 -135t-27 -163.5zM535 1227l239 325h174l-301 -325h-112z" />
    <glyph glyph-name="ocircumflex" unicode="&#xf4;" horiz-adv-x="1320" 
d="M123 537q0 117 40 217t110.5 175t170 118t215.5 43q119 0 218.5 -42t172 -116t110.5 -175.5t38 -219.5q0 -119 -38 -219.5t-110.5 -176t-172 -117.5t-218.5 -42q-117 0 -216 43t-169.5 118.5t-110.5 176t-40 217.5zM268 541q0 -90 27 -168t77 -138.5t121.5 -94.5
t165.5 -34q88 0 162 33t125 91.5t80 137t29 173.5q0 84 -29 160.5t-81 135t-124.5 94.5t-161.5 36q-90 0 -163.5 -35t-123.5 -92.5t-77 -135t-27 -163.5zM332 1225l217 278q43 55 100.5 54t100.5 -58l215 -274h-117l-203 215l-201 -215h-112z" />
    <glyph glyph-name="otilde" unicode="&#xf5;" horiz-adv-x="1320" 
d="M123 537q0 117 40 217t110.5 175t170 118t215.5 43q119 0 218.5 -42t172 -116t110.5 -175.5t38 -219.5q0 -119 -38 -219.5t-110.5 -176t-172 -117.5t-218.5 -42q-117 0 -216 43t-169.5 118.5t-110.5 176t-40 217.5zM268 541q0 -90 27 -168t77 -138.5t121.5 -94.5
t165.5 -34q88 0 162 33t125 91.5t80 137t29 173.5q0 84 -29 160.5t-81 135t-124.5 94.5t-161.5 36q-90 0 -163.5 -35t-123.5 -92.5t-77 -135t-27 -163.5zM305 1311q45 61 83 97t106 48q63 10 105 -5t76 -36.5t65.5 -38t76.5 -6.5q25 4 57.5 22.5t65.5 67.5l74 -59
q-41 -61 -86 -94t-105 -39q-72 -8 -112.5 7t-71.5 34.5t-59.5 35t-73.5 7.5q-29 -4 -59.5 -24.5t-61.5 -65.5z" />
    <glyph glyph-name="odieresis" unicode="&#xf6;" horiz-adv-x="1320" 
d="M123 537q0 117 40 217t110.5 175t170 118t215.5 43q119 0 218.5 -42t172 -116t110.5 -175.5t38 -219.5q0 -119 -38 -219.5t-110.5 -176t-172 -117.5t-218.5 -42q-117 0 -216 43t-169.5 118.5t-110.5 176t-40 217.5zM268 541q0 -90 27 -168t77 -138.5t121.5 -94.5
t165.5 -34q88 0 162 33t125 91.5t80 137t29 173.5q0 84 -29 160.5t-81 135t-124.5 94.5t-161.5 36q-90 0 -163.5 -35t-123.5 -92.5t-77 -135t-27 -163.5zM379 1356q0 92 94 92q92 0 92 -92q0 -96 -92 -96q-94 0 -94 96zM729 1356q0 92 96 92q92 0 93 -92q0 -96 -93 -96
q-96 0 -96 96z" />
    <glyph glyph-name="divide" unicode="&#xf7;" horiz-adv-x="1302" 
d="M123 702v129h1057v-129h-1057zM545 422q0 45 28.5 77.5t79.5 32.5q47 0 78 -32.5t31 -77.5q0 -109 -109 -109q-108 0 -108 109zM545 1108q0 47 28.5 78t79.5 31q53 0 81 -29t28 -80q0 -47 -31 -79t-78 -32q-49 0 -78.5 32t-29.5 79z" />
    <glyph glyph-name="oslash" unicode="&#xf8;" horiz-adv-x="1320" 
d="M123 537q0 117 40 217t110.5 175t170 118t215.5 43q66 0 123 -13l41 113h133l-53 -152q139 -68 217 -198.5t78 -302.5q0 -119 -38 -219.5t-110.5 -176t-172 -117.5t-218.5 -42q-61 0 -116 14l-43 -123h-133l55 162q-137 68 -218 201t-81 301zM268 541q0 -125 50.5 -226.5
t146.5 -156.5l278 800q-35 8 -84 9q-90 0 -163.5 -35t-123.5 -92.5t-77 -135t-27 -163.5zM584 115q18 -4 36.5 -6.5t38.5 -2.5q88 0 162 33t125 91.5t80 137t29 173.5q0 115 -52.5 214t-144.5 156z" />
    <glyph glyph-name="ugrave" unicode="&#xf9;" horiz-adv-x="1271" 
d="M176 399v660h143v-653q0 -68 18.5 -123.5t59.5 -95.5t109.5 -61.5t167.5 -21.5q27 0 61.5 2.5t69.5 6.5t68.5 10t58.5 14v922h143v-1022q-88 -31 -191.5 -47.5t-215.5 -16.5q-252 0 -372 109.5t-120 316.5zM371 1552h176l237 -325h-112z" />
    <glyph glyph-name="uacute" unicode="&#xfa;" horiz-adv-x="1271" 
d="M176 399v660h143v-653q0 -68 18.5 -123.5t59.5 -95.5t109.5 -61.5t167.5 -21.5q27 0 61.5 2.5t69.5 6.5t68.5 10t58.5 14v922h143v-1022q-88 -31 -191.5 -47.5t-215.5 -16.5q-252 0 -372 109.5t-120 316.5zM502 1227l239 325h174l-301 -325h-112z" />
    <glyph glyph-name="ucircumflex" unicode="&#xfb;" horiz-adv-x="1271" 
d="M176 399v660h143v-653q0 -68 18.5 -123.5t59.5 -95.5t109.5 -61.5t167.5 -21.5q27 0 61.5 2.5t69.5 6.5t68.5 10t58.5 14v922h143v-1022q-88 -31 -191.5 -47.5t-215.5 -16.5q-252 0 -372 109.5t-120 316.5zM307 1225l217 278q45 55 101.5 54t99.5 -58l215 -274h-117
l-202 215l-201 -215h-113z" />
    <glyph glyph-name="udieresis" unicode="&#xfc;" horiz-adv-x="1271" 
d="M176 399v660h143v-653q0 -68 18.5 -123.5t59.5 -95.5t109.5 -61.5t167.5 -21.5q27 0 61.5 2.5t69.5 6.5t68.5 10t58.5 14v922h143v-1022q-88 -31 -191.5 -47.5t-215.5 -16.5q-252 0 -372 109.5t-120 316.5zM354 1356q0 92 92 92q94 0 95 -92q0 -96 -95 -96q-92 0 -92 96z
M707 1356q0 92 92 92t92 -92q0 -96 -92 -96t-92 96z" />
    <glyph glyph-name="yacute" unicode="&#xfd;" horiz-adv-x="985" 
d="M143 -391l27 78q78 -55 160 -74q55 -12 102 -12q160 0 250 100q86 100 86 260v150q-92 -127 -270 -127q-168 0 -258 110q-86 102 -86 275v483h73v-508q0 -127 72 -207q72 -86 199 -86q123 0 198 86q72 82 72 207v508h78v-891q0 -199 -109 -315q-117 -121 -307 -121
q-152 0 -287 84zM336 993l192 269h111l-240 -269h-63z" />
    <glyph glyph-name="thorn" unicode="&#xfe;" horiz-adv-x="1142" 
d="M143 -475v950v830h78v-609q8 14 18.5 24.5t20.5 22.5q121 123 311 123q193 0 310 -123q121 -129 120 -317q0 -96 -31.5 -175t-88.5 -140q-119 -127 -310 -127q-193 0 -313 127q-10 10 -19.5 20t-17.5 23v-629h-78zM221 424q0 -160 92 -266q90 -104 258 -105
q164 0 258 105q92 106 93 266q0 160 -93 266q-98 106 -258 107q-160 0 -256 -109q-94 -104 -94 -264z" />
    <glyph glyph-name="ydieresis" unicode="&#xff;" horiz-adv-x="1300" 
d="M186 420v635h140v-629q0 -63 17 -121.5t56 -101.5t100.5 -68.5t147.5 -25.5q72 0 159 16t169 57v873h139v-1055q0 -123 -30.5 -225.5t-92 -175t-155 -112.5t-218.5 -40q-92 0 -167.5 17.5t-147.5 56.5l31 121q66 -33 131 -50.5t149 -17.5q184 0 272.5 113.5t88.5 292.5
v67q-68 -31 -149 -49t-179 -18q-211 0 -336 111.5t-125 328.5zM381 1356q0 92 94 92t94 -92q0 -96 -94 -96t-94 96zM731 1356q0 92 96 92q92 0 93 -92q0 -96 -93 -96q-96 0 -96 96z" />
    <glyph glyph-name="Abreve" unicode="&#x102;" horiz-adv-x="1415" 
d="M63 0l474 1413q20 57 59 100t113 43q76 0 111.5 -43t56.5 -100l473 -1413h-158l-205 631h-561l-205 -631h-158zM469 764h473l-201 606q-6 18 -11 34.5t-21 16.5q-18 0 -22.5 -15t-12.5 -36zM563 1885q88 -128 142 -137.5t129 110.5l84 136h98l-209 -274q-45 -57 -98 -58
t-98 54l-211 278h94z" />
    <glyph glyph-name="abreve" unicode="&#x103;" horiz-adv-x="1349" 
d="M133 520q0 117 38 221.5t107.5 181t171 122t230.5 45.5q115 0 200 -37t142 -103v111h135v-1061h-127l-2 8q-6 37 -28.5 41t-43.5 -2q-37 -12 -69.5 -21.5t-67.5 -21.5q-37 -8 -72.5 -14t-80.5 -6q-121 0 -219.5 37.5t-168 107.5t-107.5 168t-38 223zM279 524
q0 -90 25.5 -166.5t76.5 -132t125 -86t174 -30.5q94 0 182 28.5t154 65.5v426q0 80 -26.5 142.5t-71 105.5t-105.5 66.5t-127 23.5q-102 0 -178 -36t-127 -95.5t-76.5 -140.5t-25.5 -171zM530 1390q88 -128 142 -137.5t129 110.5l84 136h98l-209 -274q-45 -57 -98 -58
t-98 54l-211 278h94z" />
    <glyph glyph-name="Cacute" unicode="&#x106;" horiz-adv-x="1497" 
d="M141 776q0 170 51.5 315.5t145.5 251t228 166t302 60.5q154 0 292 -53.5t253 -186.5l-96 -106q-104 111 -214 161t-237 50q-131 0 -238.5 -50.5t-182 -138.5t-113.5 -207.5t-39 -259.5q0 -139 41 -260t115.5 -208t183 -138t244.5 -51q123 0 239.5 40t222.5 152l82 -110
q-121 -119 -262 -169t-285 -50q-172 0 -306 59t-229 164.5t-146.5 251t-51.5 317.5zM802 1700l196 267h156l-242 -267h-110z" />
    <glyph glyph-name="cacute" unicode="&#x107;" horiz-adv-x="1169" 
d="M133 537q0 117 39 217t108.5 173.5t166 115.5t212.5 42q147 0 246 -42t185 -138l-101 -86q-72 74 -148.5 109t-181.5 35q-86 0 -156.5 -35t-120.5 -91.5t-76.5 -131t-26.5 -156.5q0 -102 27.5 -183t79.5 -137.5t124 -87t162 -30.5q94 0 182 35.5t164 103.5l80 -100
q-96 -88 -204 -125t-232 -37q-127 0 -224.5 42t-166 114.5t-103.5 173t-35 219.5zM646 1165l196 267h156l-242 -267h-110z" />
    <glyph glyph-name="Ccaron" unicode="&#x10c;" horiz-adv-x="1497" 
d="M141 776q0 170 51.5 315.5t145.5 251t228 166t302 60.5q154 0 292 -53.5t253 -186.5l-96 -106q-104 111 -214 161t-237 50q-131 0 -238.5 -50.5t-182 -138.5t-113.5 -207.5t-39 -259.5q0 -139 41 -260t115.5 -208t183 -138t244.5 -51q123 0 239.5 40t222.5 152l82 -110
q-121 -119 -262 -169t-285 -50q-172 0 -306 59t-229 164.5t-146.5 251t-51.5 317.5zM545 1965l201 -213l203 213h116l-215 -274q-43 -58 -99 -59t-101 54l-218 279h113z" />
    <glyph glyph-name="ccaron" unicode="&#x10d;" horiz-adv-x="1169" 
d="M133 537q0 117 39 217t108.5 173.5t166 115.5t212.5 42q147 0 246 -42t185 -138l-101 -86q-72 74 -148.5 109t-181.5 35q-86 0 -156.5 -35t-120.5 -91.5t-76.5 -131t-26.5 -156.5q0 -102 27.5 -183t79.5 -137.5t124 -87t162 -30.5q94 0 182 35.5t164 103.5l80 -100
q-96 -88 -204 -125t-232 -37q-127 0 -224.5 42t-166 114.5t-103.5 173t-35 219.5zM381 1470l201 -213l203 213h116l-215 -274q-43 -58 -99 -59t-101 54l-218 279h113z" />
    <glyph glyph-name="Dcaron" unicode="&#x10e;" horiz-adv-x="1544" 
d="M219 0v1247q0 82 30 140.5t80 97.5t113.5 57.5t135.5 18.5h94q184 0 321 -64.5t229.5 -173.5t138.5 -252t46 -299q0 -158 -44 -298t-132 -245.5t-219 -167t-303 -61.5h-490zM365 133h319h61q31 0 50 4q109 12 194.5 62.5t145 132.5t92.5 193.5t33 246.5q0 123 -35 242
t-106.5 211t-182.5 147t-262 55h-99q-86 0 -148 -39.5t-62 -146.5v-1108zM569 1965l201 -213l203 213h116l-215 -274q-43 -58 -99 -59t-101 54l-218 279h113z" />
    <glyph glyph-name="Dcroat" unicode="&#x110;" horiz-adv-x="1544" 
d="M-6 636v125h705v-125h-705zM219 0v1247q0 82 30 140.5t80 97.5t113.5 57.5t135.5 18.5h94q184 0 321 -64.5t229.5 -173.5t138.5 -252t46 -299q0 -158 -44 -298t-132 -245.5t-219 -167t-303 -61.5h-490zM365 133h319h61q31 0 50 4q109 12 194.5 62.5t145 132.5t92.5 193.5
t33 246.5q0 123 -35 242t-106.5 211t-182.5 147t-262 55h-99q-86 0 -148 -39.5t-62 -146.5v-1108z" />
    <glyph glyph-name="dcroat" unicode="&#x111;" horiz-adv-x="1345" 
d="M133 535q0 117 38 217t107.5 173.5t167 115.5t216.5 42q125 0 213 -37.5t147 -97.5v629h133v-1577h-133v29q0 18 -7 26t-16.5 9.5t-22.5 -2t-26 -7.5q-61 -29 -140 -48t-157 -19q-127 0 -224 42t-162.5 114.5t-99.5 173t-34 217.5zM276 537q0 -88 24 -165t71 -136.5
t119.5 -93t171.5 -33.5q119 0 200.5 33.5t149.5 82.5v418q0 70 -25.5 127t-70 99t-109 67t-139.5 25q-92 0 -165 -34t-123 -90.5t-77 -133t-27 -166.5zM644 1206v125h705v-125h-705z" />
    <glyph glyph-name="Eogonek" unicode="&#x118;" horiz-adv-x="1204" 
d="M219 0v1214q0 25 1 46.5t5 37.5q20 102 92 172t183 80q10 2 35.5 4t56.5 2h475v-131h-496q-100 0 -154.5 -46t-54.5 -156v-346h627v-136h-627v-610h744v-131h-887z" />
    <glyph glyph-name="eogonek" unicode="&#x119;" horiz-adv-x="1267" 
d="M133 535q0 119 38 220t105.5 175t163 117t207.5 43q109 0 198 -34t152.5 -97.5t100.5 -150.5t43 -194q0 -25 2 -43t4 -34.5t2 -22.5h-868q2 -92 29.5 -166t78.5 -128t125 -84t170 -30q106 0 194.5 32t170.5 91l65 -106q-92 -70 -199.5 -106.5t-242.5 -36.5
q-127 0 -228.5 41.5t-170 116.5t-104.5 176.5t-36 220.5zM285 635h706q-18 145 -103 239.5t-241 94.5q-72 0 -134 -27t-109.5 -72t-77 -106t-41.5 -129z" />
    <glyph glyph-name="ecaron" unicode="&#x11b;" horiz-adv-x="1267" 
d="M133 535q0 119 38 220t105.5 175t163 117t207.5 43q109 0 198 -34t152.5 -97.5t100.5 -150.5t43 -194q0 -25 2 -43t4 -34.5t2 -22.5h-868q2 -92 29.5 -166t78.5 -128t125 -84t170 -30q106 0 194.5 32t170.5 91l65 -106q-92 -70 -199.5 -106.5t-242.5 -36.5
q-127 0 -228.5 41.5t-170 116.5t-104.5 176.5t-36 220.5zM285 635h706q-18 145 -103 239.5t-241 94.5q-72 0 -134 -27t-109.5 -72t-77 -106t-41.5 -129zM430 1470l201 -213l203 213h116l-215 -274q-43 -58 -99 -59t-101 54l-218 279h113z" />
    <glyph glyph-name="lacute" unicode="&#x13a;" horiz-adv-x="530" 
d="M195 0v1573h143v-1573h-143zM445 1475l196 267h156l-242 -267h-110z" />
    <glyph glyph-name="Lcaron" unicode="&#x13d;" horiz-adv-x="1191" 
d="M219 203v1353h148v-1355q0 -51 55 -64h674v-137h-670q-86 0 -146.5 55.5t-60.5 147.5zM494 1984q0 53 29.5 78.5t68.5 25.5q53 0 79 -35.5t26 -87.5q0 -39 -13.5 -80.5t-35 -82.5t-47 -79t-50.5 -69l-47 15q33 68 52.5 115.5t27.5 105.5q-45 12 -67.5 37.5t-22.5 56.5z
" />
    <glyph glyph-name="Nacute" unicode="&#x143;" horiz-adv-x="1593" 
d="M219 0v1409q0 72 39 117t111 45t115.5 -41t74.5 -109l621 -1257q6 -14 17 -27.5t20 -13.5q10 0 14 8t4 35v1390h141v-1406q0 -74 -40 -120t-111 -46q-117 0 -168 104q-160 324 -314.5 644.5t-316.5 643.5q-16 33 -25.5 45.5t-21.5 12.5q-18 0 -19 -33v-1401h-141z
M620 1490l196 267h156l-242 -267h-110z" />
    <glyph glyph-name="nacute" unicode="&#x144;" horiz-adv-x="1292" 
d="M201 0v938q94 66 217 105.5t239 39.5q221 0 346 -96t125 -303v-684h-149v655q0 301 -328 301q-82 0 -169 -26.5t-138 -61.5v-868h-143zM630 1195l196 267h156l-242 -267h-110z" />
    <glyph glyph-name="ncaron" unicode="&#x148;" horiz-adv-x="1292" 
d="M201 0v938q94 66 217 105.5t239 39.5q221 0 346 -96t125 -303v-684h-149v655q0 301 -328 301q-82 0 -169 -26.5t-138 -61.5v-868h-143zM443 1470l201 -213l203 213h116l-215 -274q-43 -58 -99 -59t-101 54l-218 279h113z" />
    <glyph glyph-name="OE" unicode="&#x152;" horiz-adv-x="1982" 
d="M145 776q0 162 44 304.5t133.5 250t224.5 171t313 63.5q6 0 30 -2l47 -4q24 -2 42 -3h18h99h774v-135h-725v-526h645v-139h-645v-617h766v-139h-914q-63 -12 -133 -12q-176 0 -311 62.5t-225 170t-136.5 250.5t-46.5 305zM301 778q0 -137 33 -259t102.5 -212t178 -143
t259.5 -53q35 0 63 3t60 9v1307q-31 6 -61.5 8t-69.5 2q-150 0 -257 -52.5t-175.5 -141.5t-100.5 -210t-32 -258z" />
    <glyph glyph-name="oe" unicode="&#x153;" horiz-adv-x="1957" 
d="M129 526q0 115 41 214.5t111.5 174t169 116.5t213.5 42q102 0 189 -29.5t159 -87.5q66 57 150.5 88t185.5 31q109 0 194.5 -35.5t147 -98t98.5 -152t45 -191.5q2 -18 3 -35.5t5 -34.5q2 -18 2 -32h-858q10 -180 115.5 -281.5t283.5 -101.5q98 0 183.5 32.5t177.5 94.5
l63 -113q-106 -72 -207.5 -105.5t-226.5 -33.5q-219 0 -358 114q-72 -57 -160 -89.5t-192 -32.5q-117 0 -214.5 41.5t-169 115.5t-111.5 173t-40 216zM272 528q0 -88 28 -165.5t79 -134t122.5 -88t162.5 -31.5q76 0 140 26.5t116 73.5q-86 135 -86 326q0 94 22.5 171.5
t63.5 143.5q-51 45 -116 70.5t-140 25.5q-88 0 -160 -31.5t-124 -88t-80 -133.5t-28 -165zM987 621h696q-25 154 -106.5 239.5t-226.5 85.5t-241.5 -85.5t-121.5 -239.5z" />
    <glyph glyph-name="Racute" unicode="&#x154;" 
d="M219 0v1239q0 113 54.5 196t170.5 113q27 6 62 9.5t67 3.5h91q33 0 70.5 -3.5t64.5 -7.5q76 -12 142.5 -46t115.5 -87t77.5 -124.5t28.5 -164.5q0 -168 -88 -274t-227 -152l428 -702h-172l-338 559q-41 70 -80 97.5t-100 27.5h-221v-684h-146zM365 817h305q74 0 136 18.5
t109.5 57.5t74 96.5t26.5 136.5q0 113 -62.5 188t-156.5 99q-25 6 -54.5 10t-60.5 4h-127q-190 0 -190 -184v-426zM703 1640l196 267h156l-242 -267h-110z" />
    <glyph glyph-name="racute" unicode="&#x155;" horiz-adv-x="921" 
d="M184 0v846q0 72 41 119t102.5 74.5t131 37.5t127.5 10q94 0 184 -24.5t148 -104.5l-107 -86q-37 49 -102.5 69t-122.5 20q-43 0 -85 -6.5t-83 -22.5q-55 -25 -72.5 -53.5t-17.5 -85.5v-793h-144zM424 1175l196 267h156l-242 -267h-110z" />
    <glyph glyph-name="Rcaron" unicode="&#x158;" 
d="M219 0v1239q0 113 54.5 196t170.5 113q27 6 62 9.5t67 3.5h91q33 0 70.5 -3.5t64.5 -7.5q76 -12 142.5 -46t115.5 -87t77.5 -124.5t28.5 -164.5q0 -168 -88 -274t-227 -152l428 -702h-172l-338 559q-41 70 -80 97.5t-100 27.5h-221v-684h-146zM365 817h305q74 0 136 18.5
t109.5 57.5t74 96.5t26.5 136.5q0 113 -62.5 188t-156.5 99q-25 6 -54.5 10t-60.5 4h-127q-190 0 -190 -184v-426zM456 1965l201 -213l203 213h116l-215 -274q-43 -58 -99 -59t-101 54l-218 279h113z" />
    <glyph glyph-name="rcaron" unicode="&#x159;" horiz-adv-x="921" 
d="M184 0v846q0 72 41 119t102.5 74.5t131 37.5t127.5 10q94 0 184 -24.5t148 -104.5l-107 -86q-37 49 -102.5 69t-122.5 20q-43 0 -85 -6.5t-83 -22.5q-55 -25 -72.5 -53.5t-17.5 -85.5v-793h-144zM257 1470l201 -213l203 213h116l-215 -274q-43 -58 -99 -59t-101 54
l-218 279h113z" />
    <glyph glyph-name="sacute" unicode="&#x15b;" horiz-adv-x="1054" 
d="M90 166l125 61q39 -78 108.5 -106.5t196.5 -28.5q84 0 140.5 12.5t90 34t48 50t14.5 63.5q0 88 -79 139t-199 84q-92 27 -165 55.5t-125 68.5t-79 92t-27 122q0 139 104.5 204.5t282.5 65.5q49 0 104.5 -4t109 -20.5t100.5 -53t78 -98.5l-117 -59q-39 72 -115 95.5
t-168 23.5q-41 0 -83 -7.5t-75.5 -22.5t-56 -43t-22.5 -69q0 -31 10 -58.5t42 -54t88 -51t150 -51.5q72 -20 140.5 -47.5t122 -67.5t85 -95.5t31.5 -131.5q0 -66 -19.5 -118t-69.5 -92t-135 -62.5t-218 -22.5q-68 0 -132.5 10.5t-118.5 32t-97 58.5t-70 92zM501 1145
l196 267h156l-242 -267h-110z" />
    <glyph glyph-name="Scedilla" unicode="&#x15e;" horiz-adv-x="1304" 
d="M123 242l127 84q63 -113 160.5 -154t244.5 -41q100 0 170 20.5t115 57.5t64.5 86t19.5 111q0 82 -36 134t-94 91t-132 65.5t-150.5 54t-150.5 62.5t-132.5 85t-94 125t-35.5 181q0 76 27.5 142.5t85 114.5t146.5 74t208 26q57 0 121.5 -6.5t127 -30t122 -69.5t104.5 -124
l-123 -78q-33 53 -74 88t-88 53.5t-96 25.5t-103 7q-168 0 -238.5 -60t-70.5 -159q0 -51 11.5 -94t50.5 -83t108.5 -78t183.5 -72q98 -31 183.5 -69t150 -91t101.5 -127t37 -178q0 -84 -29 -161t-91.5 -135.5t-165 -93t-247.5 -34.5q-80 0 -155.5 12t-143.5 42t-124 77
t-95 119zM426 -338l31 84q61 -39 107.5 -52t83.5 -13q59 -2 86.5 23.5t25.5 62.5q0 70 -90 71q-51 2 -108 -10l43 270l90 -4l-19 -123q-4 -20 11.5 -28.5t29.5 -8.5q70 -6 115 -49t45 -112q0 -96 -66.5 -142.5t-158.5 -42.5q-51 2 -110 15.5t-116 58.5z" />
    <glyph glyph-name="scedilla" unicode="&#x15f;" horiz-adv-x="1054" 
d="M90 166l125 61q39 -78 108.5 -106.5t196.5 -28.5q84 0 140.5 12.5t90 34t48 50t14.5 63.5q0 88 -79 139t-199 84q-92 27 -165 55.5t-125 68.5t-79 92t-27 122q0 139 104.5 204.5t282.5 65.5q49 0 104.5 -4t109 -20.5t100.5 -53t78 -98.5l-117 -59q-39 72 -115 95.5
t-168 23.5q-41 0 -83 -7.5t-75.5 -22.5t-56 -43t-22.5 -69q0 -31 10 -58.5t42 -54t88 -51t150 -51.5q72 -20 140.5 -47.5t122 -67.5t85 -95.5t31.5 -131.5q0 -66 -19.5 -118t-69.5 -92t-135 -62.5t-218 -22.5q-68 0 -132.5 10.5t-118.5 32t-97 58.5t-70 92zM301 -338l31 84
q61 -39 107.5 -52t83.5 -13q59 -2 86.5 23.5t25.5 62.5q0 70 -90 71q-51 2 -108 -10l43 270l90 -4l-19 -123q-4 -20 11.5 -28.5t29.5 -8.5q70 -6 115 -49t45 -112q0 -96 -66.5 -142.5t-158.5 -42.5q-51 2 -110 15.5t-116 58.5z" />
    <glyph glyph-name="Scaron" unicode="&#x160;" horiz-adv-x="1304" 
d="M123 242l127 84q63 -113 160.5 -154t244.5 -41q100 0 170 20.5t115 57.5t64.5 86t19.5 111q0 82 -36 134t-94 91t-132 65.5t-150.5 54t-150.5 62.5t-132.5 85t-94 125t-35.5 181q0 76 27.5 142.5t85 114.5t146.5 74t208 26q57 0 121.5 -6.5t127 -30t122 -69.5t104.5 -124
l-123 -78q-33 53 -74 88t-88 53.5t-96 25.5t-103 7q-168 0 -238.5 -60t-70.5 -159q0 -51 11.5 -94t50.5 -83t108.5 -78t183.5 -72q98 -31 183.5 -69t150 -91t101.5 -127t37 -178q0 -84 -29 -161t-91.5 -135.5t-165 -93t-247.5 -34.5q-80 0 -155.5 12t-143.5 42t-124 77
t-95 119zM449 1965l201 -213l203 213h116l-215 -274q-43 -58 -99 -59t-101 54l-218 279h113z" />
    <glyph glyph-name="scaron" unicode="&#x161;" horiz-adv-x="1054" 
d="M90 166l125 61q39 -78 108.5 -106.5t196.5 -28.5q84 0 140.5 12.5t90 34t48 50t14.5 63.5q0 88 -79 139t-199 84q-92 27 -165 55.5t-125 68.5t-79 92t-27 122q0 139 104.5 204.5t282.5 65.5q49 0 104.5 -4t109 -20.5t100.5 -53t78 -98.5l-117 -59q-39 72 -115 95.5
t-168 23.5q-41 0 -83 -7.5t-75.5 -22.5t-56 -43t-22.5 -69q0 -31 10 -58.5t42 -54t88 -51t150 -51.5q72 -20 140.5 -47.5t122 -67.5t85 -95.5t31.5 -131.5q0 -66 -19.5 -118t-69.5 -92t-135 -62.5t-218 -22.5q-68 0 -132.5 10.5t-118.5 32t-97 58.5t-70 92zM324 1470
l201 -213l203 213h116l-215 -274q-43 -58 -99 -59t-101 54l-218 279h113z" />
    <glyph glyph-name="uni0162" unicode="&#x162;" horiz-adv-x="1707" 
 />
    <glyph glyph-name="uni0163" unicode="&#x163;" horiz-adv-x="1707" 
 />
    <glyph glyph-name="Tcaron" unicode="&#x164;" horiz-adv-x="1153" 
d="M47 1427v129h1063v-129h-457v-1427h-151v1427h-455zM373 1965l201 -213l203 213h116l-215 -274q-43 -58 -99 -59t-101 54l-218 279h113z" />
    <glyph glyph-name="Uring" unicode="&#x16e;" horiz-adv-x="1523" 
d="M628 1770q88 -128 142 -137.5t129 110.5l84 136h98l-209 -274q-45 -57 -98 -58t-98 54l-211 278h94zM217 516v1040h150v-1032q0 -84 12 -133q10 -59 40 -109.5t80 -87t123.5 -58t174.5 -21.5q39 0 87 4t95 13t91 20.5t75 21.5v1382h151v-1484q-113 -39 -240.5 -69
t-264.5 -30q-225 0 -361.5 87t-185.5 243q-27 82 -27 213z" />
    <glyph glyph-name="Uhungarumlaut" unicode="&#x170;" horiz-adv-x="1523" 
d="M380 1708l237 328h175l-302 -328h-110zM970 1708l237 328h175l-302 -328h-110zM217 516v1040h150v-1032q0 -84 12 -133q10 -59 40 -109.5t80 -87t123.5 -58t174.5 -21.5q39 0 87 4t95 13t91 20.5t75 21.5v1382h151v-1484q-113 -39 -240.5 -69t-264.5 -30
q-225 0 -361.5 87t-185.5 243q-27 82 -27 213z" />
    <glyph glyph-name="uhungarumlaut" unicode="&#x171;" horiz-adv-x="1271" 
d="M400 1148l237 328h175l-302 -328h-110zM760 1148l237 328h175l-302 -328h-110zM176 399v660h143v-653q0 -68 18.5 -123.5t59.5 -95.5t109.5 -61.5t167.5 -21.5q27 0 61.5 2.5t69.5 6.5t68.5 10t58.5 14v922h143v-1022q-88 -31 -191.5 -47.5t-215.5 -16.5
q-252 0 -372 109.5t-120 316.5z" />
    <glyph glyph-name="Ydieresis" unicode="&#x178;" horiz-adv-x="1249" 
d="M43 1556h166l418 -739l417 739h164l-440 -765q-18 -33 -44 -88.5t-26 -112.5v-590h-147v590q0 51 -24.5 103t-49.5 98zM360 1776q0 94 95 94q94 0 94 -94q0 -96 -94 -97q-95 1 -95 97zM713 1776q0 94 94 94t94 -94q0 -96 -94 -97q-94 1 -94 97z" />
    <glyph glyph-name="Zacute" unicode="&#x179;" 
d="M121 119q0 41 18.5 73.5t42.5 65.5l819 1145q10 10 7.5 13t-13.5 3h-772v137h797q59 0 102 -27.5t43 -88.5q0 -29 -11 -59.5t-54 -90.5q-59 -82 -134 -187.5t-156 -217t-160 -223t-149.5 -209t-126 -175t-87.5 -118.5q-14 -23 -2 -23h905v-137h-922q-74 0 -110.5 34
t-36.5 85zM693 1620l196 267h156l-242 -267h-110z" />
    <glyph glyph-name="zacute" unicode="&#x17a;" horiz-adv-x="1046" 
d="M131 100q0 39 20.5 75t47.5 69l530 686h-534v131h575q51 0 84 -26.5t33 -71.5q0 -31 -12.5 -60t-45.5 -72q-31 -39 -69.5 -90t-81.5 -107t-88 -114.5t-88 -113.5q-102 -131 -209 -273h614v-133h-659q-49 0 -83 24.5t-34 75.5zM507 1135l196 267h156l-242 -267h-110z" />
    <glyph glyph-name="Zdotaccent" unicode="&#x17b;" 
d="M121 119q0 41 18.5 73.5t42.5 65.5l819 1145q10 10 7.5 13t-13.5 3h-772v137h797q59 0 102 -27.5t43 -88.5q0 -29 -11 -59.5t-54 -90.5q-59 -82 -134 -187.5t-156 -217t-160 -223t-149.5 -209t-126 -175t-87.5 -118.5q-14 -23 -2 -23h905v-137h-922q-74 0 -110.5 34
t-36.5 85z" />
    <glyph glyph-name="Zcaron" unicode="&#x17d;" 
d="M121 119q0 41 18.5 73.5t42.5 65.5l819 1145q10 10 7.5 13t-13.5 3h-772v137h797q59 0 102 -27.5t43 -88.5q0 -29 -11 -59.5t-54 -90.5q-59 -82 -134 -187.5t-156 -217t-160 -223t-149.5 -209t-126 -175t-87.5 -118.5q-14 -23 -2 -23h905v-137h-922q-74 0 -110.5 34
t-36.5 85zM456 1965l201 -213l203 213h116l-215 -274q-43 -58 -99 -59t-101 54l-218 279h113z" />
    <glyph glyph-name="zcaron" unicode="&#x17e;" horiz-adv-x="1046" 
d="M131 100q0 39 20.5 75t47.5 69l530 686h-534v131h575q51 0 84 -26.5t33 -71.5q0 -31 -12.5 -60t-45.5 -72q-31 -39 -69.5 -90t-81.5 -107t-88 -114.5t-88 -113.5q-102 -131 -209 -273h614v-133h-659q-49 0 -83 24.5t-34 75.5zM320 1470l201 -213l203 213h116l-215 -274
q-43 -58 -99 -59t-101 54l-218 279h113z" />
    <glyph glyph-name="circumflex" unicode="&#x2c6;" horiz-adv-x="862" 
d="M115 1225l217 278q45 55 101 54t99 -58l216 -274h-117l-201 215l-203 -215h-112z" />
    <glyph glyph-name="caron" unicode="&#x2c7;" horiz-adv-x="1707" 
d="M665 1470l201 -213l203 213h116l-215 -274q-43 -58 -99 -59t-101 54l-218 279h113z" />
    <glyph glyph-name="breve" unicode="&#x2d8;" horiz-adv-x="1707" 
d="M628 1390q88 -128 142 -137.5t129 110.5l84 136h98l-209 -274q-45 -57 -98 -58t-98 54l-211 278h94z" />
    <glyph glyph-name="tilde" unicode="&#x2dc;" horiz-adv-x="976" 
d="M131 1309q72 121 172 141q51 12 98.5 0t96.5 -39l18 -10l19 -17q31 -20 62.5 -24t59.5 0q31 6 59.5 26.5t57.5 69.5l74 -51q-39 -57 -82 -93t-94 -46q-102 -25 -195 39l-16 14l-19 10q-35 18 -63.5 25.5t-59.5 3.5q-33 -6 -59.5 -28.5t-54.5 -65.5z" />
    <glyph glyph-name="endash" unicode="&#x2013;" horiz-adv-x="1208" 
d="M55 506v125h1100v-125h-1100z" />
    <glyph glyph-name="emdash" unicode="&#x2014;" horiz-adv-x="1873" 
d="M57 506v125h1762v-125h-1762z" />
    <glyph glyph-name="quoteleft" unicode="&#x2018;" horiz-adv-x="436" 
d="M119 1298q0 39 13 81t34.5 83t48.5 79t51 69l45 -15q-31 -66 -51 -113.5t-27 -105.5q45 -12 67 -38.5t22 -57.5q0 -53 -29 -77.5t-70 -24.5q-51 0 -77.5 34.5t-26.5 85.5z" />
    <glyph glyph-name="quoteright" unicode="&#x2019;" horiz-adv-x="436" 
d="M119 1489q0 53 29.5 78.5t68.5 25.5q53 0 79 -35.5t26 -87.5q0 -39 -13.5 -80.5t-35 -82.5t-47 -79t-50.5 -69l-47 15q33 68 52.5 115.5t27.5 105.5q-45 12 -67.5 37.5t-22.5 56.5z" />
    <glyph glyph-name="quotesinglbase" unicode="&#x201a;" horiz-adv-x="436" 
d="M117 76q0 53 28.5 77.5t69.5 24.5q51 0 77.5 -34.5t26.5 -86.5q0 -39 -13 -81t-34.5 -82.5t-47 -78.5t-50.5 -69l-47 14q31 68 51.5 116t24.5 106q-43 12 -64.5 37.5t-21.5 56.5z" />
    <glyph glyph-name="quotedblleft" unicode="&#x201c;" horiz-adv-x="727" 
d="M119 1298q0 39 13 81t34.5 83t48.5 79t51 69l45 -15q-31 -66 -51 -113.5t-27 -105.5q45 -12 67 -38.5t22 -57.5q0 -53 -29 -77.5t-70 -24.5q-51 0 -77.5 34.5t-26.5 85.5zM422 1298q0 39 13.5 81t35 83t48 79t50.5 69l45 -15q-31 -66 -51 -113.5t-26 -105.5
q45 -12 66.5 -38.5t21.5 -57.5q0 -53 -30 -77.5t-69 -24.5q-51 0 -77.5 34.5t-26.5 85.5z" />
    <glyph glyph-name="quotedblright" unicode="&#x201d;" horiz-adv-x="722" 
d="M106 1489q0 53 30 78.5t67 25.5q53 0 78.5 -35.5t25.5 -87.5q0 -39 -13 -80.5t-33.5 -82.5t-46.5 -79t-50 -69l-49 15q31 68 52 115.5t26 105.5q-45 12 -66 37.5t-21 56.5zM410 1489q0 53 29.5 78.5t66.5 25.5q53 0 78.5 -35.5t25.5 -87.5q0 -39 -13 -80.5t-33.5 -82.5
t-46 -79t-50.5 -69l-49 15q31 68 52.5 115.5t25.5 105.5q-45 12 -65.5 37.5t-20.5 56.5z" />
    <glyph glyph-name="quotedblbase" unicode="&#x201e;" horiz-adv-x="702" 
d="M109 76q0 53 28.5 77.5t65.5 24.5q53 0 78.5 -34.5t25.5 -86.5q0 -39 -13 -81t-33.5 -82.5t-46.5 -78.5t-50 -69l-49 14q33 68 53 116t27 106q-45 12 -65.5 37.5t-20.5 56.5zM414 76q0 53 28.5 77.5t65.5 24.5q53 0 78.5 -34.5t25.5 -86.5q0 -39 -13 -81t-33.5 -82.5
t-46 -78.5t-50.5 -69l-49 14q33 68 53.5 116t26.5 106q-45 12 -65.5 37.5t-20.5 56.5z" />
    <glyph glyph-name="bullet" unicode="&#x2022;" horiz-adv-x="770" 
d="M143 670q0 131 56.5 187t187.5 56q127 0 185.5 -58t58.5 -185q0 -123 -60 -183q-31 -35 -79 -46t-107 -11q-129 0 -185.5 56.5t-56.5 183.5z" />
    <glyph glyph-name="ellipsis" unicode="&#x2026;" horiz-adv-x="1314" 
d="M141 80q0 92 97 92q92 0 92 -92q0 -98 -92 -98q-97 0 -97 98zM565 80q0 92 97 92q92 0 92 -92q0 -98 -92 -98q-97 0 -97 98zM983 80q0 92 94 92q92 0 92 -92q0 -98 -92 -98q-94 0 -94 98z" />
    <glyph glyph-name="guilsinglleft" unicode="&#x2039;" horiz-adv-x="600" 
d="M137 432l203 281h139l-200 -281l200 -282h-139z" />
    <glyph glyph-name="guilsinglright" unicode="&#x203a;" horiz-adv-x="600" 
d="M121 150l203 282l-203 281h139l205 -281l-205 -282h-139z" />
    <glyph glyph-name="Euro" unicode="&#x20ac;" horiz-adv-x="1484" 
d="M98 451v124h154q-2 12 -2 27v29q0 23 1 43t3 41h-72v121h97q41 150 147 264q90 92 202.5 140t254.5 48q131 0 245.5 -50t225.5 -161l-101 -90q-88 90 -175 130t-193 40q-115 0 -204 -37t-159 -114q-70 -72 -106 -170h725v-121h-752q-4 -20 -4 -40v-42v-31q0 -14 2 -27
h672v-124h-649q49 -162 177 -253.5t298 -91.5q100 0 193 44.5t171 125.5l84 -106q-106 -98 -215.5 -145.5t-232.5 -47.5q-285 0 -463 185q-115 121 -152 289h-172z" />
    <glyph glyph-name="trademark" unicode="&#x2122;" horiz-adv-x="1785" 
d="M131 1468v88h590v-88h-246v-692h-98v692h-246zM809 774v707q0 37 25.5 61.5t62.5 24.5q39 0 63.5 -22.5t34.5 -49.5l187 -414l182 414q12 27 36.5 49.5t61.5 22.5t62.5 -24.5t25.5 -61.5v-707h-92v688q0 10 -8 2l-229 -514h-82l-230 514q-6 12 -6 2v-692h-94z" />
    <glyph glyph-name="uniE000" unicode="&#xe000;" horiz-adv-x="1060" 
d="M0 1060h1060v-1060h-1060v1060z" />
    <glyph glyph-name="uniFB01" unicode="&#xfb01;" horiz-adv-x="1341" 
d="M201 0v1141q0 86 21.5 158.5t64.5 125t108.5 83t151.5 30.5q59 0 124.5 -18.5t135.5 -61.5l-45 -123q-80 47 -126 59.5t-83 12.5q-115 0 -164 -71.5t-49 -192.5v-127h373v-135h-373v-881h-139zM977 1362q0 39 25.5 63.5t60.5 24.5q39 0 64.5 -24.5t25.5 -63.5
q0 -35 -25.5 -60.5t-64.5 -25.5q-35 0 -60.5 25.5t-25.5 60.5zM993 0v1055h142v-1055h-142z" />
    <glyph glyph-name="uniFB02" unicode="&#xfb02;" 
d="M199 0v1141q0 86 22.5 158.5t65.5 125t108.5 83t151.5 30.5q57 0 123.5 -18.5t136.5 -61.5l-49 -123q-76 47 -122 59.5t-83 12.5q-115 0 -164 -71.5t-49 -192.5v-127h373v-135h-373v-881h-141zM985 0v1556h141v-1556h-141z" />
    <glyph glyph-name="uniFB03" unicode="&#xfb03;" horiz-adv-x="2193" 
d="M1815 1370q0 94 94 94t94 -94q0 -98 -94 -98t-94 98zM1837 0v1061h143v-1061h-143zM1010 0v1153q0 86 22.5 158.5t65.5 127t109.5 84t152.5 29.5q59 0 125.5 -18t136.5 -64l-45 -116q-80 47 -126 59t-85 12q-115 0 -165 -72.5t-50 -193.5v-133h377v-133h-377v-893h-141z
M201 0v1153q0 86 22.5 158.5t65.5 127t109.5 84t152.5 29.5q59 0 125.5 -18t136.5 -64l-45 -116q-80 47 -126 59t-85 12q-115 0 -165 -72.5t-50 -193.5v-133h377v-133h-377v-893h-141z" />
    <glyph glyph-name="uniFB04" unicode="&#xfb04;" horiz-adv-x="2148" 
d="M1815 0v1573h143v-1573h-143zM1010 0v1153q0 86 22.5 158.5t65.5 127t109.5 84t152.5 29.5q59 0 125.5 -18t136.5 -64l-45 -116q-80 47 -126 59t-85 12q-115 0 -165 -72.5t-50 -193.5v-133h377v-133h-377v-893h-141zM201 0v1153q0 86 22.5 158.5t65.5 127t109.5 84
t152.5 29.5q59 0 125.5 -18t136.5 -64l-45 -116q-80 47 -126 59t-85 12q-115 0 -165 -72.5t-50 -193.5v-133h377v-133h-377v-893h-141z" />
    <glyph glyph-name="NULL" horiz-adv-x="0" 
 />
    </font>
</defs>
</svg>
